<!-- Generator: Adobe Illustrator 22.0.1, SVG Export Plug-In  -->
<svg version="1.1"
	 xmlns="http://www.w3.org/2000/svg" xmlns:xlink="http://www.w3.org/1999/xlink" xmlns:a="http://ns.adobe.com/AdobeSVGViewerExtensions/3.0/"
	 x="0px" y="0px" width="41.7px" height="156.3px" viewBox="0 0 41.7 156.3" style="enable-background:new 0 0 41.7 156.3;"
	 xml:space="preserve">
<style type="text/css">
	.st0{fill-rule:evenodd;clip-rule:evenodd;fill:#774B00;}
	.st1{fill-rule:evenodd;clip-rule:evenodd;fill:url(#SVGID_1_);}
	.st2{fill-rule:evenodd;clip-rule:evenodd;fill:url(#SVGID_2_);}
</style>
<defs>
</defs>
<g>
	<path class="st0" d="M20.9,101.4L20.9,101.4c1.4,0,2.6,1.2,2.6,2.6v49.8c0,1.4-1.2,2.6-2.6,2.6l0,0c-1.4,0-2.6-1.2-2.6-2.6V104
		C18.3,102.5,19.4,101.4,20.9,101.4z"/>
	<linearGradient id="SVGID_1_" gradientUnits="userSpaceOnUse" x1="35.2304" y1="64.4181" x2="7.579" y2="64.4172">
		<stop  offset="0" style="stop-color:#00531C"/>
		<stop  offset="1" style="stop-color:#002828"/>
	</linearGradient>
	<path class="st1" d="M20.9,0L20.9,0C9.4,0,0,9.4,0,20.9V108c0,11.5,9.4,20.9,20.9,20.9h0c11.5,0,20.9-9.4,20.9-20.9V20.9
		C41.7,9.4,32.3,0,20.9,0z"/>
</g>
</svg>
