<!-- Generator: Adobe Illustrator 22.0.1, SVG Export Plug-In  -->
<svg version="1.1"
	 xmlns="http://www.w3.org/2000/svg" xmlns:xlink="http://www.w3.org/1999/xlink" xmlns:a="http://ns.adobe.com/AdobeSVGViewerExtensions/3.0/"
	 x="0px" y="0px" width="181.9px" height="239px" viewBox="0 0 181.9 239" style="enable-background:new 0 0 181.9 239;"
	 xml:space="preserve">
<style type="text/css">
	.st0{fill-rule:evenodd;clip-rule:evenodd;fill:#EE7C00;}
	.st1{fill-rule:evenodd;clip-rule:evenodd;fill:#281A5E;}
	.st2{fill-rule:evenodd;clip-rule:evenodd;fill:#A51380;}
	.st3{fill-rule:evenodd;clip-rule:evenodd;fill:#000003;}
	.st4{fill-rule:evenodd;clip-rule:evenodd;fill:#E30045;}
	
		.st5{fill-rule:evenodd;clip-rule:evenodd;fill:none;stroke:#FFFFFF;stroke-width:2.4177;stroke-linecap:round;stroke-linejoin:round;stroke-miterlimit:22.9256;}
	.st6{fill-rule:evenodd;clip-rule:evenodd;fill:#EF8380;}
	.st7{fill-rule:evenodd;clip-rule:evenodd;fill:#F5B0B4;}
	.st8{fill-rule:evenodd;clip-rule:evenodd;fill:url(#SVGID_1_);}
	.st9{fill-rule:evenodd;clip-rule:evenodd;fill:#1A1A18;}
	.st10{fill-rule:evenodd;clip-rule:evenodd;fill:#FFCB00;}
	.st11{clip-path:url(#SVGID_3_);}
	.st12{clip-path:url(#SVGID_5_);}
	.st13{fill-rule:evenodd;clip-rule:evenodd;fill:#FFEC00;}
	.st14{fill-rule:evenodd;clip-rule:evenodd;fill:#2F2482;}
	.st15{fill-rule:evenodd;clip-rule:evenodd;fill:url(#SVGID_8_);}
	.st16{fill-rule:evenodd;clip-rule:evenodd;fill:#DAE182;}
	.st17{fill-rule:evenodd;clip-rule:evenodd;fill:url(#SVGID_9_);}
	.st18{fill-rule:evenodd;clip-rule:evenodd;fill:url(#SVGID_10_);}
	.st19{clip-path:url(#SVGID_12_);}
	.st20{clip-path:url(#SVGID_14_);}
	.st21{fill-rule:evenodd;clip-rule:evenodd;fill:url(#SVGID_17_);}
	.st22{fill-rule:evenodd;clip-rule:evenodd;fill:url(#SVGID_18_);}
</style>
<defs>
</defs>
<g>
	<g>
		<path class="st0" d="M101,46.9c1.9-15.5,29.7-12.9,28.7,0.9c-0.6,8.3,3.3,16.6-1.9,23.3c-5,6.4-5.9,8.7-12.3,8.8
			c-1.6,0-11.2-6.7-14.4-11.9C100.5,59.7,100,55.1,101,46.9z"/>
		<path class="st0" d="M99.6,49.8c1.6,0.2,2.4,1.4,2.4,3.9c0,2.2-0.1,2.7-0.3,5.5c0,0.9,0.1,1.9-0.9,2.2c-1,0.2-1.5-0.6-1.7-1.8
			c-0.1-1-2.6-1.7-2.5-5.6C96.6,51.6,97.9,49.6,99.6,49.8z"/>
		<path class="st1" d="M130.9,83l-15.1-0.8l0.6-2.3L101.1,68l-4.6,12.3L80.2,79c-14.1,0.5-15.9-0.4-16.4,23.3L65.3,239l116.6-0.1
			C171.2,191.4,167.9,114.3,130.9,83z"/>
		<path class="st2" d="M91.3,55.2c0.1,0.2,0.2,0.4,0.4,0.5C91.6,55.4,91.5,55.2,91.3,55.2L91.3,55.2z M129.5,45
			c-2.7-11.1-26.8-10-28.8,5.2c-0.3-0.2-0.7-0.3-1.1-0.4c-1.6-0.2-3,1.8-3,4.1c-0.1,3.9,2.4,4.6,2.5,5.6c0.2,1.2,0.7,1.9,1.6,1.8
			c0.1,2,0.3,4.2,0.5,6.7l-0.2,2.1c-0.4,0-0.7-0.3-0.9-0.6c-1.1-1.2,0-0.3-1.2-0.6c-0.1-0.5-0.4-0.1-0.9-0.1
			c-1.9-0.1-1.1-0.2-1.5-1.3c-0.8-2.3-1-4.9-1.4-7.2c-0.3-1.5-0.1-0.6-0.5-1.2c-0.6-1-0.3-0.8-0.9-0.8c-0.7-0.5-1.8-1-2.3-1.6
			c-1-1.2-0.4-1.7,0-1.4c-0.5-1-0.7-2.8-0.9-3.3c0-0.1-1.4-3.9-1.4-3.9c-0.5-1.3-0.7-0.8-1-2.7c2.1-0.4,0-1.1-0.2-2
			c-0.3-1.7,2.3-0.7,2-2.4c-0.1-0.5-1.3-1.8,0.5-2.1c-0.5-2.9-0.6-1.9-1.6-4c-0.3-0.7-0.5-0.9-0.1-1.1c2.1-0.9-0.7-2.3,1.4-2.7
			c-0.2-1.4-0.1-1.4-0.8-2.7c-0.4-0.9-0.6-3.4-0.8-4.7c4.5-0.8,2.3-0.4,4.5,0.5l1,0.2c0,0,0.6,0.8,1,0.7c-0.3-1.7-1.1-4.5-1.5-6.1
			c-0.3-1.1-0.2-2.9-0.1-2.3c4.2,0.6,7.1,1.3,11.4,0.5c1.4-0.3,2.5,1.1,3,1c0.8-0.1,0-2.6,1.2-1.2c2.3,2.6,0.7-1.7,1.7-0.9
			c0.2,0.2,1.6,1,2,1.2c0.8,0.4,1.2-0.5,1.2-1.1c0.1-1.7-0.1-1.2,0.9-0.6c1.8,1.1,5.3,10,5.5,8.9c0.3-1.3,0.7,0.3,0.9,1.3
			c0.5,2,1.5,0.3,1.3-0.4c0.8-0.6,0.1-1.1,0.7-0.6c0.7,0.5,1.4,2.7,1.7,3.4c1.1,2.2,1.1,2.7,2,1.5c0.8-1.1,0.6-1.3,0.9-0.6
			c1.1,2.6,1.1,2.7,1.5,5.5c0.2,1.1-0.4,3.9,0,4.8C130.5,41.8,129.6,44,129.5,45z"/>
		<path class="st3" d="M127.8,53.3c-0.6,0.1-1,0.7-0.9,1.3c0.1,0.6,0.7,1,1.2,0.9c0.6-0.1,1-0.7,0.9-1.3
			C129,53.6,128.4,53.2,127.8,53.3z"/>
		<path class="st3" d="M117.9,52.5c-0.6,0.1-1,0.7-0.9,1.3c0.1,0.6,0.7,1,1.2,0.9c0.6-0.1,1-0.7,0.9-1.3
			C119,52.8,118.5,52.4,117.9,52.5z"/>
		<path class="st4" d="M124.5,51.8l4.2,11c0.4,1.1-0.4,1.9-1.3,1.9l-3.3-0.2c0-0.1,0,0.1,0.1-0.2c0-0.3-0.2-0.9-0.6-0.9
			c-0.4,0-0.9,0.5-0.9,0.8c0,0.3,0,0.1,0,0.2l-0.2,0c-1.5-0.1-1.7-3.4,0.6-3.8l-0.3-8.3L124.5,51.8z"/>
		<path class="st5" d="M117.9,69c1.9,2.2,4.6,2.8,7,1.5"/>
	</g>
	<g>
		<path class="st4" d="M105.5,183.5l-0.1-5l-13.5-1.6l-1.9,5.8l-18.6,4.4v7.4l-6,44.6l63.9,0l-3.9-44.6
			C125.4,182.1,119.9,186,105.5,183.5z"/>
		<path class="st6" d="M130.5,156l2-6.8c-1-1.9-1.5-3-1-5.1l1.2-6c0.1-0.8,1.6-1.1,1.4,0.8l-0.1,1.9c0.3,0.1,1.5-10,4-9.3
			c0.7,0.2,1.1,0.8,1,1.5c-0.1,0.9-1.4,5.4-1.3,5.4c0.1,0,1.3-5.1,1.6-6.2c0.2-0.7,0.8-1.2,1.5-1l0,0c0.6,0.2,0.9,0.9,0.8,1.6
			c-0.1,1.5-1.6,5.4-1.5,5.6c0,0.1,1.1-3.7,1.4-4.5c0.3-0.7,1-1,1.6-0.8l0,0c0.6,0.3,0.9,1.1,0.6,1.8c-0.3,0.8-2.2,5.7-2.2,5.7
			c0.1,0.1,1-2.4,1.2-2.8c0.4-0.6,1.1-0.8,1.6-0.4l0,0c0.5,0.4,0.5,1.2,0.3,1.9L143,144c-0.5,1.3-1.1,5.1-3.4,7.8l-1.9,6.4
			L130.5,156z"/>
		<polygon class="st4" points="125.5,194.4 113.6,189.4 129.4,141.6 143.2,149.2 		"/>
		<path class="st7" d="M114.9,158.6c-3-1.2-6-2.5-8.2-5c-15.8-18.4-34.4,5-14.7,19.9l-0.2,3.4l12.2,1.4l0,0h0l0.6,0.1
			c2.9,0.4,7.8-1.4,7.4-7.7c0-0.7-0.8,1.1-3.7,1.2c-2.9,0.1-5-3.6-3.6-3.4c2.8,0.4,7.4-2.6,6.8-3.6c-0.3-0.6-0.7-0.3-1.1-1
			C112.7,163,116.5,159.9,114.9,158.6z"/>
		
			<linearGradient id="SVGID_1_" gradientUnits="userSpaceOnUse" x1="-97.3008" y1="143.9396" x2="-76.7183" y2="169.3651" gradientTransform="matrix(-0.9779 0 0 1 3.7609 0)">
			<stop  offset="0" style="stop-color:#FFEC00"/>
			<stop  offset="1" style="stop-color:#EF7E3B"/>
		</linearGradient>
		<path class="st8" d="M101.4,148.9c-18.7,4.2,2.6,17.7-9.4,27.9c-16.7,7.1-19.5-20.9-14.6-30C81.1,139.8,99.4,135.7,101.4,148.9z"
			/>
		<path class="st9" d="M103.4,158c-0.8,0-1.5-0.7-1.5-1.6s0.7-1.6,1.5-1.6c0.8,0,1.5,0.7,1.5,1.6S104.2,158,103.4,158z"/>
	</g>
	<g>
		<path class="st10" d="M52.7,31.4c13.2,0,19,15.7,19.8,26.3c0,0.1-3.1,1.6-8.3,0.1c-3.1-0.8,0.2,6,8.4,5.1
			c-0.2,7.3-1.4,7.9-3.2,11.8H33.9c-2.1-4.4,1.3,1.6-3.3-15.1C26.1,42.9,38.5,31.4,52.7,31.4z"/>
		<g>
			<defs>
				<path id="SVGID_2_" d="M52.7,31.4c13.2,0,19,15.7,19.8,26.3c0,0.1-3.1,1.6-8.3,0.1c-3.1-0.8,0.2,6,8.4,5.1
					c-0.2,7.3-1.4,7.9-3.2,11.8H33.9c-2.1-4.4,1.3,1.6-3.3-15.1C26.1,42.9,38.5,31.4,52.7,31.4z"/>
			</defs>
			<clipPath id="SVGID_3_">
				<use xlink:href="#SVGID_2_"  style="overflow:visible;"/>
			</clipPath>
			<g class="st11">
				<g>
					<defs>
						<rect id="SVGID_4_" x="58.8" y="28.9" width="25.9" height="31.6"/>
					</defs>
					<clipPath id="SVGID_5_">
						<use xlink:href="#SVGID_4_"  style="overflow:visible;"/>
					</clipPath>
					<g class="st12">
						<defs>
							<rect id="SVGID_6_" x="58.8" y="32.6" width="13.9" height="27.9"/>
						</defs>
						<clipPath id="SVGID_7_">
							<use xlink:href="#SVGID_6_"  style="overflow:visible;"/>
						</clipPath>
						<g transform="matrix(1 0 0 1 0 0)" style="clip-path:url(#SVGID_7_);">
							
								<image style="overflow:visible;" width="59" height="115" xlink:href="9C942E01117D4931.jpg"  transform="matrix(-0.2348 0 0 0.2428 72.697 32.5661)">
							</image>
						</g>
					</g>
				</g>
			</g>
		</g>
		<path class="st13" d="M65.4,38l14.5,11.4c1.4,1.2,0.8,2.7-0.6,3.2L74,54.4c0-0.1,0.1,0.1-0.1-0.3c-0.1-0.4-1-1-1.7-0.8
			c-0.7,0.2-1,1.3-0.9,1.6c0.1,0.4,0.1,0.2,0.1,0.3l-0.4,0.1c-2.4,0.8-5.1-3.3-1.7-5.2L65.4,38z"/>
		<path class="st14" d="M60.2,40.7L56.8,42c0,0,0-0.1-0.1-0.1c-0.6-1.8,0.5-3.8,2.4-4.5c1.9-0.7,3.9,0.3,4.5,2.1L60.2,40.7z"/>
		
			<linearGradient id="SVGID_8_" gradientUnits="userSpaceOnUse" x1="-41.6522" y1="35.3349" x2="-37.9672" y2="13.0331" gradientTransform="matrix(-0.9779 0 0 1 3.7609 0)">
			<stop  offset="0" style="stop-color:#E4007D"/>
			<stop  offset="1" style="stop-color:#FFCB00"/>
		</linearGradient>
		<path class="st15" d="M62.1,34.7C20,29.6,60.9,59.8,31.5,64.3C-7.3,26,48.5,19.9,55.9,0.8C57.9-4.5,80.7,17.5,62.1,34.7z"/>
		<polygon class="st16" points="50.9,37.7 59.7,32.1 58.7,30.3 49.9,35.9 		"/>
		
			<linearGradient id="SVGID_9_" gradientUnits="userSpaceOnUse" x1="-60.5766" y1="185.5281" x2="-3.8467" y2="126.531" gradientTransform="matrix(-0.9779 0 0 1 3.7609 0)">
			<stop  offset="0" style="stop-color:#006237"/>
			<stop  offset="1" style="stop-color:#AEC905"/>
		</linearGradient>
		<polygon class="st17" points="27.3,49.8 73.6,76.3 71.8,86.5 75.8,105 97.4,239 0,239 11.1,85.1 30.2,66.2 		"/>
	</g>
</g>
</svg>
