<!-- Generator: Adobe Illustrator 22.0.1, SVG Export Plug-In  -->
<svg version="1.1"
	 xmlns="http://www.w3.org/2000/svg" xmlns:xlink="http://www.w3.org/1999/xlink" xmlns:a="http://ns.adobe.com/AdobeSVGViewerExtensions/3.0/"
	 x="0px" y="0px" width="196.7px" height="104.1px" viewBox="0 0 196.7 104.1" style="enable-background:new 0 0 196.7 104.1;"
	 xml:space="preserve">
<style type="text/css">
	.st0{fill-rule:evenodd;clip-rule:evenodd;fill:none;stroke:#1A1A18;stroke-width:0.4504;stroke-miterlimit:22.9256;}
	.st1{fill-rule:evenodd;clip-rule:evenodd;fill:#E30045;stroke:#1A1A18;stroke-width:0.4507;stroke-miterlimit:22.9256;}
	.st2{fill-rule:evenodd;clip-rule:evenodd;fill:#E30045;stroke:#1A1A18;stroke-width:0.4504;stroke-miterlimit:22.9256;}
	.st3{fill-rule:evenodd;clip-rule:evenodd;fill:#E30045;}
	.st4{fill-rule:evenodd;clip-rule:evenodd;fill:none;stroke:#1A1A18;stroke-width:0.4499;stroke-miterlimit:22.9256;}
	.st5{fill-rule:evenodd;clip-rule:evenodd;fill:url(#SVGID_1_);}
	.st6{fill-rule:evenodd;clip-rule:evenodd;fill:url(#SVGID_2_);}
	.st7{fill-rule:evenodd;clip-rule:evenodd;fill:url(#SVGID_3_);}
	.st8{fill-rule:evenodd;clip-rule:evenodd;fill:url(#SVGID_4_);}
	.st9{fill-rule:evenodd;clip-rule:evenodd;fill:#FFCB00;}
	.st10{fill-rule:evenodd;clip-rule:evenodd;fill:url(#SVGID_5_);}
	.st11{fill-rule:evenodd;clip-rule:evenodd;fill:#EE7C00;}
	.st12{fill-rule:evenodd;clip-rule:evenodd;fill:#E2000F;}
	.st13{fill-rule:evenodd;clip-rule:evenodd;fill:url(#SVGID_6_);}
	.st14{fill-rule:evenodd;clip-rule:evenodd;fill:url(#SVGID_7_);}
	.st15{fill-rule:evenodd;clip-rule:evenodd;fill:url(#SVGID_8_);}
	.st16{fill-rule:evenodd;clip-rule:evenodd;fill:url(#SVGID_9_);}
	.st17{fill-rule:evenodd;clip-rule:evenodd;fill:#1A1A18;}
	.st18{fill-rule:evenodd;clip-rule:evenodd;fill:url(#SVGID_10_);}
	.st19{fill-rule:evenodd;clip-rule:evenodd;fill:url(#SVGID_11_);}
	.st20{fill-rule:evenodd;clip-rule:evenodd;fill:url(#SVGID_12_);}
	.st21{fill-rule:evenodd;clip-rule:evenodd;fill:url(#SVGID_13_);}
	.st22{fill-rule:evenodd;clip-rule:evenodd;fill:url(#SVGID_14_);}
	.st23{fill-rule:evenodd;clip-rule:evenodd;fill:url(#SVGID_15_);}
	.st24{fill-rule:evenodd;clip-rule:evenodd;fill:url(#SVGID_16_);}
	.st25{fill-rule:evenodd;clip-rule:evenodd;fill:url(#SVGID_17_);}
	.st26{fill-rule:evenodd;clip-rule:evenodd;fill:url(#SVGID_18_);}
	.st27{fill-rule:evenodd;clip-rule:evenodd;fill:url(#SVGID_19_);}
	.st28{fill-rule:evenodd;clip-rule:evenodd;fill:url(#SVGID_20_);}
	.st29{fill-rule:evenodd;clip-rule:evenodd;fill:url(#SVGID_21_);}
	.st30{fill-rule:evenodd;clip-rule:evenodd;fill:url(#SVGID_22_);}
	.st31{fill-rule:evenodd;clip-rule:evenodd;fill:url(#SVGID_23_);}
	.st32{fill-rule:evenodd;clip-rule:evenodd;fill:url(#SVGID_24_);}
</style>
<defs>
</defs>
<g>
	<polyline class="st0" points="122.9,80.2 120,66.6 123.6,67.1 	"/>
	<polyline class="st0" points="108,8.4 106.3,4.2 103.2,4.7 120,66.6 	"/>
	<line class="st0" x1="71.6" y1="24.4" x2="69.5" y2="61.7"/>
	<polyline class="st0" points="92.8,66.5 93.5,21.4 102.9,17.8 101.5,67.6 	"/>
	<path class="st1" d="M130.3,68.9c1.4-0.1,2.5,1,2.5,2.4c0,1.4-1.1,2.5-2.4,2.6c-1.4,0.1-2.5-1-2.5-2.4
		C127.8,70.2,128.9,69,130.3,68.9z"/>
	<path class="st2" d="M134.1,75.2c1.4-0.1,2.5,1,2.5,2.4c0,1.4-1.1,2.5-2.4,2.6c-1.4,0.1-2.5-1-2.5-2.4
		C131.6,76.4,132.7,75.3,134.1,75.2z"/>
	<path class="st3" d="M191.4,66.6c0.9,0,1.7,0.7,1.7,1.6c0,0.9-0.7,1.7-1.7,1.8c-0.9,0-1.7-0.7-1.7-1.6
		C189.7,67.4,190.5,66.7,191.4,66.6z"/>
	<path class="st3" d="M191.5,71.4c0.9,0,1.7,0.7,1.7,1.6c0,0.9-0.7,1.7-1.7,1.8c-0.9,0-1.7-0.7-1.7-1.6
		C189.8,72.2,190.5,71.4,191.5,71.4z"/>
	<polyline class="st0" points="189.1,78.6 189,66.6 192.4,64.2 	"/>
	<polyline class="st0" points="53.8,33.6 52.9,70.7 67.3,79.1 67.8,28.8 68.2,26 	"/>
	<polyline class="st0" points="56.4,72.7 56.2,59.1 60.7,59.3 60.9,75.4 	"/>
	<line class="st0" x1="71.1" y1="32.4" x2="93.5" y2="22.7"/>
	<line class="st0" x1="38.5" y1="57.4" x2="51.4" y2="57.2"/>
	<polyline class="st0" points="27.2,66.2 27.1,56.7 19,57.1 19.1,65.8 	"/>
	<line class="st4" x1="69" y1="22.5" x2="76.3" y2="17.8"/>
	<linearGradient id="SVGID_1_" gradientUnits="userSpaceOnUse" x1="131.4328" y1="-5.0744" x2="141.3145" y2="30.368">
		<stop  offset="0" style="stop-color:#62C2CF"/>
		<stop  offset="1" style="stop-color:#1563AD"/>
	</linearGradient>
	<path class="st5" d="M103.2,4.7l2,7.2L120,66.6l3.6,0.4l-1.1-4.7c-3.2-13.4-6.4-26.3-10-39.3c-1.4-5-2.8-10-4.3-15l6.9-3.1
		l53.4,1.4c-3.7-2.4-4-4.9-9.6-5.1L110.2,0l-10.1,4.1L103.2,4.7z"/>
	<linearGradient id="SVGID_2_" gradientUnits="userSpaceOnUse" x1="156.4383" y1="59.3839" x2="139.9828" y2="4.4048">
		<stop  offset="0" style="stop-color:#000003"/>
		<stop  offset="1" style="stop-color:#009DE2"/>
	</linearGradient>
	<path class="st6" d="M172.8,20.7l-54.9,0.4l-5.3,2c3.6,13,6.8,25.9,10,39.3l5.2,1l63.6-3.8c-5-16.8-8-26.6-14.3-38.8L172.8,20.7z"
		/>
	<linearGradient id="SVGID_3_" gradientUnits="userSpaceOnUse" x1="121.6001" y1="14.0545" x2="208.3405" y2="10.1461">
		<stop  offset="0" style="stop-color:#30247E"/>
		<stop  offset="1" style="stop-color:#E30045"/>
	</linearGradient>
	<path class="st7" d="M117.9,21.1l54.9-0.4l4.2,0.2c-2.3-4.4-5-9.1-8.5-14.5L115.2,5l-6.9,3.1c1.5,5.1,2.9,10,4.3,15L117.9,21.1z"/>
	<linearGradient id="SVGID_4_" gradientUnits="userSpaceOnUse" x1="122.7794" y1="69.9311" x2="204.2941" y2="71.1019">
		<stop  offset="0" style="stop-color:#30247E"/>
		<stop  offset="1" style="stop-color:#009DE2"/>
	</linearGradient>
	<polygon class="st8" points="191.3,59.6 127.7,63.4 122.6,62.4 123.6,67.1 134,68.3 141.4,81.5 189.1,78.6 189,66.6 192.4,64.2 	
		"/>
	<path class="st9" d="M189.1,78.6l-47.8,2.9l-9.3,0.6l-5.2-1l-4-0.8l-0.1,8.4l-4.8,12.7l11.5,1.6l7-6.3c19.6-1.4,37.7-2.7,57.2-5.3
		l0.1,3.3l0.1-0.1l2.9-11l-1.5-7.5L189.1,78.6z"/>
	<polygon class="st9" points="71.6,24.4 96.9,12.3 105.2,11.9 103.2,4.7 100.1,4.1 74.5,18.7 72,22.3 	"/>
	<linearGradient id="SVGID_5_" gradientUnits="userSpaceOnUse" x1="143.0096" y1="89.5492" x2="67.2679" y2="73.8161">
		<stop  offset="0" style="stop-color:#FFCB00"/>
		<stop  offset="1" style="stop-color:#EE7C00"/>
	</linearGradient>
	<polygon class="st10" points="92.8,66.5 69.5,61.7 70.2,80 93.1,91.8 	"/>
	<polygon class="st9" points="53.8,33.6 68.2,26 70.3,21.4 55.1,29.8 	"/>
	<polygon class="st11" points="51.8,34.1 53.3,29.9 40,33.1 39,36.8 	"/>
	<polygon class="st12" points="36.5,37.6 37.2,33.3 14.5,37.9 13.6,40.1 	"/>
	<polygon class="st12" points="27.1,56.7 19,57.1 19.1,65.8 27.2,66.2 	"/>
	<polygon class="st11" points="38.5,57.4 38.3,68.2 51.1,69.7 51.4,57.2 	"/>
	<polygon class="st9" points="56.2,59.1 56.4,72.7 60.9,75.4 60.7,59.3 	"/>
	<linearGradient id="SVGID_6_" gradientUnits="userSpaceOnUse" x1="96.8303" y1="48.9489" x2="104.6634" y2="47.3347">
		<stop  offset="0" style="stop-color:#1A1A18"/>
		<stop  offset="1" style="stop-color:#008AD1"/>
	</linearGradient>
	<polygon class="st13" points="71.1,32.4 93.5,22.7 93.5,21.4 102.9,17.8 101.5,67.6 102.9,68.2 103.5,71.3 122.9,80.2 120,66.6 
		105.2,11.9 96.9,12.3 71.6,24.4 	"/>
	<linearGradient id="SVGID_7_" gradientUnits="userSpaceOnUse" x1="93.0566" y1="44.5859" x2="72.7659" y2="45.5189">
		<stop  offset="0" style="stop-color:#30247E"/>
		<stop  offset="1" style="stop-color:#1A1A18"/>
	</linearGradient>
	<polygon class="st14" points="93.5,22.7 71.1,32.4 69.5,61.7 92.8,66.5 	"/>
	<linearGradient id="SVGID_8_" gradientUnits="userSpaceOnUse" x1="98.1054" y1="61.7458" x2="97.4079" y2="8.713">
		<stop  offset="0" style="stop-color:#30247E"/>
		<stop  offset="1" style="stop-color:#E4007D"/>
	</linearGradient>
	<polygon class="st15" points="93.5,22.7 92.8,66.5 93.1,91.8 101.9,96.4 101.5,67.6 102.9,17.8 93.5,21.4 	"/>
	<linearGradient id="SVGID_9_" gradientUnits="userSpaceOnUse" x1="127.1253" y1="92.4997" x2="100.9847" y2="81.741">
		<stop  offset="0" style="stop-color:#FFCB00"/>
		<stop  offset="1" style="stop-color:#EE7C00"/>
	</linearGradient>
	<polygon class="st16" points="122.9,80.2 103.5,71.3 102.9,68.2 101.5,67.6 101.9,96.4 108.1,98.7 118,101.3 122.8,88.6 	"/>
	<path class="st17" d="M193.6,91.3c-19.5,2.7-37.6,4-57.2,5.3l-7,6.3l2.9,1.2l20.2-0.3l4.3-2.1l5.9-0.5l2,1.1l25.5-3.3l3.4-4.4
		L193.6,91.3z"/>
	<polygon class="st11" points="126.9,81 123.6,67.1 120,66.6 122.9,80.2 	"/>
	<path class="st17" d="M123.6,67.1l3.3,13.9l5.2,1l9.3-0.6L134,68.3L123.6,67.1L123.6,67.1z M131.6,77.8c0-1.4,1.1-2.5,2.4-2.6
		c1.4-0.1,2.5,1,2.5,2.4c0,1.4-1.1,2.5-2.4,2.6C132.8,80.2,131.7,79.1,131.6,77.8L131.6,77.8z M132.8,71.3c0,1.4-1.1,2.5-2.4,2.6
		c-1.4,0.1-2.5-1-2.5-2.4c0-1.4,1.1-2.5,2.4-2.6C131.6,68.9,132.7,69.9,132.8,71.3z"/>
	<path class="st17" d="M189,66.6l0.2,12l6.1-2.7l-2.8-11.8L189,66.6L189,66.6z M191.5,74.7c-0.9,0-1.7-0.7-1.7-1.6
		c0-0.9,0.7-1.7,1.7-1.8c0.9,0,1.7,0.7,1.7,1.6C193.2,73.9,192.4,74.7,191.5,74.7L191.5,74.7z M191.4,70c-0.9,0-1.7-0.7-1.7-1.6
		c0-0.9,0.7-1.7,1.7-1.8c0.9,0,1.7,0.7,1.7,1.6C193.1,69.1,192.4,69.9,191.4,70z"/>
	<linearGradient id="SVGID_10_" gradientUnits="userSpaceOnUse" x1="24.3951" y1="55.4491" x2="29.3501" y2="11.2515">
		<stop  offset="0" style="stop-color:#00192A"/>
		<stop  offset="1" style="stop-color:#009DE2"/>
	</linearGradient>
	<polygon class="st18" points="35.8,66.9 36.5,37.6 13.6,40.1 13.4,40.1 12.4,65.5 19.1,65.8 19,57.1 27.1,56.7 27.2,66.2 
		29.9,66.3 	"/>
	<linearGradient id="SVGID_11_" gradientUnits="userSpaceOnUse" x1="44.1506" y1="87.6883" x2="45.8517" y2="19.9967">
		<stop  offset="0" style="stop-color:#30247E"/>
		<stop  offset="1" style="stop-color:#009DE2"/>
	</linearGradient>
	<polygon class="st19" points="39,36.8 38.5,57.4 51.4,57.2 51.8,34.1 	"/>
	<linearGradient id="SVGID_12_" gradientUnits="userSpaceOnUse" x1="65.9521" y1="52.6894" x2="49.6339" y2="39.534">
		<stop  offset="0" style="stop-color:#1A1A18"/>
		<stop  offset="1" style="stop-color:#E2000F"/>
	</linearGradient>
	<polygon class="st20" points="53.8,33.6 52.9,70.7 56.4,72.7 56.2,59.1 60.7,59.3 60.9,75.4 67.3,79.1 67.8,28.8 68.2,26 	"/>
	<polygon class="st11" points="67.8,28.8 67.3,79.1 70.2,80 69.5,61.7 71.1,32.4 71.6,24.4 72,22.3 74.2,19.2 70.1,21.8 68.2,26 	
		"/>
	<polygon class="st9" points="0.8,40.7 11.7,40.2 13,38.4 0.9,39 	"/>
	<polygon class="st9" points="11.2,57.4 0.3,58 0,66.1 10.9,65.5 	"/>
	<polygon class="st17" points="0.3,58 11.2,57.4 11.7,40.2 0.8,40.7 	"/>
	<polygon class="st11" points="14.5,37.9 13,38.4 11.7,40.2 11.2,57.4 10.9,65.5 12.4,65.5 13.4,40.1 13.6,40.1 	"/>
	<polygon class="st11" points="35.8,66.9 38.3,68.2 38.5,57.4 39,36.8 40,33.1 37.2,33.3 36.5,37.6 	"/>
	<polygon class="st11" points="51.1,69.1 52.9,70.3 53.8,33.6 54.9,30.4 53.1,30.5 51.8,34.1 51.4,57.2 	"/>
</g>
</svg>
