<svg xmlns="http://www.w3.org/2000/svg" xmlns:xlink="http://www.w3.org/1999/xlink" viewBox="0 0 85.77 163.3"><defs><style>.cls-1{fill:#691f00;}.cls-1,.cls-10,.cls-11,.cls-12,.cls-13,.cls-14,.cls-15,.cls-16,.cls-17,.cls-2,.cls-3,.cls-4,.cls-5,.cls-6,.cls-7,.cls-8,.cls-9{fill-rule:evenodd;}.cls-2{fill:url(#GradientFill_23);}.cls-3{fill:url(#GradientFill_150);}.cls-4{fill:#ffcb00;}.cls-5{fill:url(#GradientFill_108);}.cls-6{fill:#008ad1;}.cls-7{fill:#ef8062;}.cls-16,.cls-17,.cls-8,.cls-9{fill:none;stroke-linecap:round;stroke-linejoin:round;}.cls-8,.cls-9{stroke:#ee7c00;}.cls-8{stroke-width:1.51px;}.cls-9{stroke-width:1.51px;}.cls-10{fill:url(#GradientFill_100);}.cls-11{fill:#1a1a18;stroke-miterlimit:22.93;stroke-width:0.2px;}.cls-11,.cls-16{stroke:#1a1a18;}.cls-12{fill:url(#GradientFill_143);}.cls-13{fill:#ee7c00;}.cls-14{fill:#a0d8f7;}.cls-15{fill:url(#GradientFill_143-2);}.cls-16,.cls-17{stroke-width:0.76px;}.cls-17{stroke:#3b3a39;}</style><linearGradient id="GradientFill_23" x1="46.97" y1="54.97" x2="50.57" y2="39.85" gradientUnits="userSpaceOnUse"><stop offset="0" stop-color="#ffcb00"/><stop offset="1" stop-color="#ee7c00"/></linearGradient><linearGradient id="GradientFill_150" x1="50.37" y1="21.29" x2="-30.61" y2="-11.36" gradientUnits="userSpaceOnUse"><stop offset="0" stop-color="#e53c0d"/><stop offset="0.48" stop-color="#ffe800"/><stop offset="1" stop-color="#f29fc1"/></linearGradient><linearGradient id="GradientFill_108" x1="46.34" y1="31.59" x2="54.76" y2="33.79" gradientUnits="userSpaceOnUse"><stop offset="0" stop-color="#ee7c00"/><stop offset="1" stop-color="#e2000f"/></linearGradient><linearGradient id="GradientFill_100" x1="48.96" y1="107.75" x2="25.95" y2="60.77" gradientUnits="userSpaceOnUse"><stop offset="0" stop-color="#2f2482"/><stop offset="1" stop-color="#009de2"/></linearGradient><linearGradient id="GradientFill_143" x1="11.87" y1="88.08" x2="53.16" y2="87.6" gradientUnits="userSpaceOnUse"><stop offset="0" stop-color="#ffec00"/><stop offset="1" stop-color="#ee7c00"/></linearGradient><linearGradient id="GradientFill_143-2" x1="71.52" y1="97.73" x2="29.84" y2="81.2" xlink:href="#GradientFill_143"/></defs><title>Ресурс 9iam</title><g id="Слой_2" data-name="Слой 2"><g id="Слой_1-2" data-name="Слой 1"><polygon class="cls-1" points="76.58 136.43 13.64 136.43 13.29 147.06 13.99 163.29 81.3 163.3 76.58 136.43"/><polygon class="cls-2" points="55.56 45 41.59 45.92 40.52 54.71 32.12 55.35 35.7 64.26 51.53 67.21 61.31 56.74 53.77 55.5 55.56 45"/><path class="cls-3" d="M38.51,36.85c-3.31,1.11-3.78-1.35-4-2.08-.47,0-1.15.11-1.15-.46-1.57,0-.31-3.76-.31-4.31,0-.34-4.2-2.54-4.93-3.54A3.23,3.23,0,0,1,27.91,23c1.18-1.9,0-2.26,2.93-3.23,3.22-1.08,0-1.75,0-2.77,0-3.3,2.94-2.69-.46-6.54-.5-.57-.85-.56-1.39-1.31-1.1-1.52.58-4,1.7-3.86.09,0-.53.85.06,1.32s3.8,1.18,5.48,0S36.07,3.91,38,2.52c.82-.6.6-.34,1.46-.69,1.52-.63,2.39.31,2.85,1.46,1.2,3,7.53-7.44,10.5-1.35,2.08,6.13,5-.83,8.58,4.58.36.55.67.92,1,1.39.47.64,3,3.79,6.2,1.82.86-.55,1.81,1.13,2.23,2.14,2.52,6.07,4.32,1,3.8,7.53-.14,1.72-.54,1-.86,2.35-.2.85.61.52.8,1.86.26,1.95-1.39,1.25-.7,2.23,4,5.67-.86,7.37-2.92,8.89-.46.33-.28,2.19-.27,2.19,1.31,1.31-.15,2.3-.15,3.77s-2,3-3.15,3.7c-.57.33-.31.11-.7.31a14.57,14.57,0,0,1-3.06.3c-.59,0-2.1,1.79-3.88,1.12Z"/><path class="cls-4" d="M65,25.44c1-14.14-26.1-18-27.61-5.49-.91,7.48-2.46,14-1.47,22,.86,7,4.78,9.84,10.17,10.52,4.87.61,11.92-3,15.06-8.3C63.2,36.94,64.44,32.93,65,25.44Z"/><path class="cls-5" d="M49.14,26l-2.86-.92c-2.16,5-1.73,5.11-4.82,9.09-.78.91-.65,2.48.39,2.68l3.77.75c0-.06,0,.07,0-.19a.93.93,0,0,1,1-.65,1.12,1.12,0,0,1,.79,1c0,.26,0,.13,0,.18l.26.05c1.69.34,2.94-2.6.46-3.61Z"/><path class="cls-6" d="M53.94,29.66a1.19,1.19,0,1,0-1.18-1.19A1.19,1.19,0,0,0,53.94,29.66Z"/><path class="cls-7" d="M46,42.36a1.66,1.66,0,0,1-.93.1c-.76-.18-.65-.46-.91-.47-1.53-.1-3.48.45-3.48,1.21.62,1,6.78,2.42,8.79,1.42C49.47,43.67,47.31,42.7,46,42.36Z"/><path class="cls-6" d="M42.48,27.25a1.09,1.09,0,1,0-1.09-1.09A1.09,1.09,0,0,0,42.48,27.25Z"/><path class="cls-8" d="M59.25,24.53a4,4,0,0,0-1.46-2.12,4,4,0,0,0-4.39-.26"/><path class="cls-9" d="M46.28,21.07a4,4,0,0,0-2-1.62,4,4,0,0,0-4.28,1"/><path class="cls-4" d="M65.86,28.36c-1.59-.19-2.56.72-3,2.91-.35,1.95-.36,2.45-.74,4.9-.12.77-.42,1.7.48,2.11s1.57-.18,2-1.23c.33-.87,2.78-.94,3.42-4.39C68.39,30.63,67.45,28.55,65.86,28.36Z"/><path class="cls-10" d="M34.79,55.06,19.35,56.74C15.34,57,8.13,64,5,72.85L17.24,79,10.7,144.47H79.38L76.67,84.21l9.1-.59C84.4,62.9,84.37,61.4,78.54,59.48L60.26,56.57C56.68,68.17,32.26,63.36,34.79,55.06Z"/><path class="cls-11" d="M19.61,68h0a1.41,1.41,0,0,0,0,2l20,19.13a1.4,1.4,0,0,0,2,0h0a1.4,1.4,0,0,0,0-2l-20-19.13A1.4,1.4,0,0,0,19.61,68Z"/><path class="cls-12" d="M15.09,89.79l10.7-4.17c.5-.55,10.81-10.39,12.5-11.43a1.94,1.94,0,0,1,1.92.16h0c.57.29.27,1.19-.36,1.57L35.51,78.6c-2,2.46,12-3,12.67-.63h0a1.17,1.17,0,0,1-1,1.34c-.86.21-8.08,1.17-7.75,1.86s8-.28,9-.44a1.21,1.21,0,0,1,1.46.87h0c.07.58-.49,1-1.19,1.24-1.43.46-9,.82-9.07,1.39s6.52.47,7.33.44a1.12,1.12,0,0,1,1.27,1h0a1.36,1.36,0,0,1-1.38,1.11c-.83,0-8.71.16-8.84.31-.62.71,4.84,1.22,5.33,1.28a1,1,0,0,1,1,1.2h0a1.43,1.43,0,0,1-1.56.9l-7.54-.9c-2.49-.29-5.74,2.07-7.24,2.78-3.92,1.85-22.7,14.22-26.5,10.09C.5,101.35-.38,101.13.17,96,1.24,89.9,3,78.86,5.38,73l15.15,7.33C19.08,83.82,15.83,88,15.09,89.79Z"/><path class="cls-13" d="M30.62,87a6.42,6.42,0,1,0-6.42-6.42A6.43,6.43,0,0,0,30.62,87Z"/><polygon class="cls-14" points="61.23 73.85 32.13 67.21 16.92 100.97 45.7 107.64 61.23 73.85"/><path class="cls-15" d="M69.77,102.3l-6.94-4.25c-.24-.61-4.84-6.3-8-10.25l-1.3,2.84c.93,3-12.53-8.75-14.2-6.14h0a1.53,1.53,0,0,0,.58,2c.89.62,8.65,4.89,8,5.57s-8.91-3.79-10-4.43a1.39,1.39,0,0,0-2,.4h0c-.32.66.13,1.43.83,2,1.42,1.17,9.8,4.85,9.68,5.57-.16.88-7.56-2.26-8.46-2.63a1.3,1.3,0,0,0-1.86.68h0a1.72,1.72,0,0,0,1.11,1.92c.92.38,9.76,4,9.85,4.19.41,1.11-6-.63-6.54-.77a1.2,1.2,0,0,0-1.61,1h0a1.82,1.82,0,0,0,1.4,1.74L49.14,104c2.93.72,9.39.54,11,1.76,4.15,3.12,13.92,16.93,20.24,12.69,2-1.37,3.32-2.59,3.7-9.06.63-7.95,1.05-17.8,1.1-25.69L68.13,84.75C68.34,90.74,69.66,98.21,69.77,102.3Z"/><path class="cls-16" d="M57.14,78.78c.37-5.39-2.69-.24-3.34-.14-3,.49,2.18-3.54-2.68-1.27-2.36,1.11-3-3-5.07-1-1.11,0-.68-7.11-2.75-3-2.51,0-1-.13-4.08,1-3.59,1.29-5-1.34-6.34-1.48"/><path class="cls-17" d="M55.16,81.6c-.64.1-.77-1.12-1.19,0-.79,2.13-1.89-.45-2.47-.21-2.58,1.07-2.74-1.07-3.73-1.55-2-1-6.87,1.21-6.62-1.09"/><path class="cls-16" d="M37.05,77.65c-.31.94-3-2.78-4.17-1.44"/><path class="cls-17" d="M32.12,78.78c-.45,2.06,4.58,5.11,4.92,3.32,0-.09,0-2,3.9,0,.34.18,1.83-.3,1.83-.07,0,3,3.25-.77,6.34,1.84.56.56-.22,1.72.49,2.07,1.5.75,3.47-.79,2.61,1.34"/><path class="cls-17" d="M35.34,84.93a5,5,0,0,1-3.66.59c-2-.68-.75-2.71-3.05-3-1.05-.15-1.51,1.38-2,.14"/><path class="cls-17" d="M27.27,87c.9,2.63,7.06,3.56,9.09,4.22.4.13.15.14.68.14"/><path class="cls-17" d="M35,94.94c-2.8-5.07-9.24-.6-10-3.59"/><path class="cls-17" d="M38,99.22s-4.35-1.57-5.14-2.1c-.58-.43-1.67-1.69-2.75-1.69a2.12,2.12,0,0,1-1.27.43c-2.49.15-5.14-.64-5.14-3.42"/><path class="cls-17" d="M44,104.55c-1.11.13,0-.8-1.09-1.44-2-1.21-3.73.2-5.49.2-3,0-4.13-1.26-5.5-2.24s-4.26.83-4.26-1.15c0-.65-.67-.82-2-.82-1.52,0-3.62-2.52-3.87.12"/></g></g></svg>