<svg xmlns="http://www.w3.org/2000/svg" xmlns:xlink="http://www.w3.org/1999/xlink" viewBox="0 0 98.33 136.92"><defs><style>.cls-1,.cls-4{fill:none;stroke-linecap:round;stroke-linejoin:round;stroke-width:0.88px;}.cls-1{stroke:#1a1a18;}.cls-2{fill:#fc0;}.cls-10,.cls-11,.cls-2,.cls-3,.cls-5,.cls-6,.cls-7,.cls-8,.cls-9{fill-rule:evenodd;}.cls-3{fill:#e3000f;}.cls-4{stroke:#d5410b;}.cls-5{fill:#d5410b;}.cls-6{fill:#2f2483;}.cls-7{fill:#1a1a18;}.cls-8{fill:#ef7c00;}.cls-9{fill:url(#GradientFill_97);}.cls-10{fill:url(#GradientFill_100);}.cls-11{fill:#e5007d;}</style><linearGradient id="GradientFill_97" x1="-812.7" y1="-786.27" x2="-813.02" y2="-794.7" gradientUnits="userSpaceOnUse"><stop offset="0" stop-color="#ad4482"/><stop offset="1" stop-color="#2f2483"/></linearGradient><linearGradient id="GradientFill_100" x1="-814.54" y1="-802.17" x2="-814.24" y2="-800.74" gradientUnits="userSpaceOnUse"><stop offset="0" stop-color="#2f2483"/><stop offset="1" stop-color="#009ee3"/></linearGradient></defs><title>Ресурс 3mur</title><g id="Слой_2" data-name="Слой 2"><g id="Layer_1" data-name="Layer 1"><image width="675" height="800" transform="matrix(0.07, -0.01, 0.01, 0.09, 0, 4.08)" xlink:href="../../../../Работа/github/robertokovalev.github.io/Galerie-Zahradnik.jpg"/><line class="cls-1" x1="44.72" y1="45.78" x2="33.26" y2="32.89"/><path class="cls-2" d="M-843.16-774.85a2.69,2.69,0,0,0,2.35-2.92,2.68,2.68,0,0,0-2.35-2.92,2.69,2.69,0,0,0-2.35,2.92A2.7,2.7,0,0,0-843.16-774.85Z" transform="translate(883.5 816.5)"/><path class="cls-3" d="M-798.31-688c-1.83,3.24-3.72.41-7.64-.35-3.17-.6-8.85.47-7.75,4.56l7.75,4.12,7.72.11c.09,0,.15,0,.21,0a.2.2,0,0,0,.09-.18v-7.87a.34.34,0,0,0-.12-.26C-798.13-688-798.27-688.1-798.31-688Z" transform="translate(883.5 816.5)"/><path class="cls-3" d="M-814.95-688c-1.83,3.24-3.72.41-7.64-.35-3.17-.6-8.85.47-7.75,4.56l7.75,4.12,7.72.11c.09,0,.15,0,.21,0a.2.2,0,0,0,.09-.18v-7.87a.34.34,0,0,0-.12-.26C-814.77-688-814.91-688.1-814.95-688Z" transform="translate(883.5 816.5)"/><line class="cls-4" x1="85.48" y1="88.25" x2="96.95" y2="75.36"/><path class="cls-5" d="M-785.26-742.61c.28.24-.08,1.1-.79,1.91s-1.52,1.27-1.8,1,.08-1.1.79-1.91S-785.54-742.86-785.26-742.61Z" transform="translate(883.5 816.5)"/><polygon class="cls-6" points="56.5 72.59 58.69 130.9 69.59 131.32 70.3 89.55 74.45 131.32 86 131.32 82.87 72.44 56.5 72.59"/><path class="cls-7" d="M-840.66-757.95-846-776.71l5.92-.68,3.86,11c1.22-2.11,4.36-9.09,5.58-11.19,3-5.15,3.77-4.9,7.27-5h4.78l.07-4.79h8.26v4.75h2.84c3.76-.07,9.74.4,10.35,5.47l4.61,38.58-5.55.68-4.14-28.44-.41,9.41,1.93,12.9a149.82,149.82,0,0,1-26.37.14l1.84-13.7-1.17-11.63-8.26,12.77C-836.23-753.53-839.82-754.53-840.66-757.95Z" transform="translate(883.5 816.5)"/><path class="cls-3" d="M-819.78-796.2l-2.88,3.74c-.28.38,0,.72.37.75l1.44.09s0,0,0-.07a.4.4,0,0,1,.36-.3.39.39,0,0,1,.32.34c0,.1,0,0,0,.08h.1A.7.7,0,0,0-820-793Z" transform="translate(883.5 816.5)"/><path class="cls-8" d="M-814.39-785.84c3.69,0,6.71-3.5,6.71-7.78s-3-7.79-6.71-7.79-6.71,3.5-6.71,7.79S-818.08-785.84-814.39-785.84Z" transform="translate(883.5 816.5)"/><path class="cls-9" d="M-818.43-798.06l9.88-1.07c3,1.5,3.32,13.27,1.87,14.7-2.77,1.49-5.26,1.94-11.89.8C-821.34-784.46-818-791.73-818.43-798.06Z" transform="translate(883.5 816.5)"/><path class="cls-3" d="M-814.39-796.74c4.29,0,7.78-1.19,7.78-2.65s-3.49-2.65-7.78-2.65-7.78,1.19-7.78,2.65S-818.68-796.74-814.39-796.74Z" transform="translate(883.5 816.5)"/><path class="cls-10" d="M-814.33-800.06a1.14,1.14,0,0,0,1.14-1.14,1.14,1.14,0,0,0-1.14-1.15,1.14,1.14,0,0,0-1.15,1.15A1.14,1.14,0,0,0-814.33-800.06Z" transform="translate(883.5 816.5)"/><polygon class="cls-8" points="86.05 78.51 90.37 77.98 92.65 84.05 90.68 87.12 86.05 85 86.05 78.51"/><path class="cls-11" d="M-851.72-785.27c-.28.24.07,1.1.79,1.91s1.52,1.27,1.79,1-.07-1.1-.79-1.91S-851.45-785.52-851.72-785.27Z" transform="translate(883.5 816.5)"/><path class="cls-7" d="M-819.42-796h-2.39a2.42,2.42,0,0,0,2.39,2.45A2.42,2.42,0,0,0-817-796Z" transform="translate(883.5 816.5)"/></g></g></svg>