<svg xmlns="http://www.w3.org/2000/svg" xmlns:xlink="http://www.w3.org/1999/xlink" viewBox="0 0 66.65 122.77"><defs><style>.cls-1,.cls-4{fill:none;stroke-linecap:round;stroke-linejoin:round;stroke-width:0.88px;}.cls-1{stroke:#1a1a18;}.cls-2{fill:#ffcb00;}.cls-10,.cls-11,.cls-2,.cls-3,.cls-5,.cls-6,.cls-7,.cls-8,.cls-9{fill-rule:evenodd;}.cls-3{fill:#e2000f;}.cls-4{stroke:#d4410b;}.cls-5{fill:#d4410b;}.cls-6{fill:#2f2482;}.cls-7{fill:#1a1a18;}.cls-8{fill:#ee7c00;}.cls-9{fill:url(#GradientFill_97);}.cls-10{fill:url(#GradientFill_100);}.cls-11{fill:#e4007d;}</style><linearGradient id="GradientFill_97" x1="39.12" y1="16.08" x2="38.8" y2="7.65" gradientUnits="userSpaceOnUse"><stop offset="0" stop-color="#ac4481"/><stop offset="1" stop-color="#2f2482"/></linearGradient><linearGradient id="GradientFill_100" x1="37.28" y1="0.18" x2="37.58" y2="1.61" gradientUnits="userSpaceOnUse"><stop offset="0" stop-color="#2f2482"/><stop offset="1" stop-color="#009de2"/></linearGradient></defs><title>Ресурс 5artist</title><g id="Слой_2" data-name="Слой 2"><g id="Слой_1-2" data-name="Слой 1"><line class="cls-1" x1="13.04" y1="31.63" x2="1.58" y2="18.74"/><path class="cls-2" d="M8.66,27.5A2.68,2.68,0,0,0,11,24.58a2.68,2.68,0,0,0-2.35-2.92,2.68,2.68,0,0,0-2.35,2.92A2.68,2.68,0,0,0,8.66,27.5Z"/><path class="cls-3" d="M53.5,114.33c-1.82,3.24-3.71.41-7.64-.34-3.16-.61-8.84.46-7.74,4.55l7.74,4.12,7.73.11a.36.36,0,0,0,.21,0,.2.2,0,0,0,.09-.18v-7.87a.37.37,0,0,0-.12-.26C53.69,114.35,53.55,114.25,53.5,114.33Z"/><path class="cls-3" d="M36.86,114.33c-1.82,3.24-3.71.41-7.64-.34-3.16-.61-8.84.46-7.74,4.55l7.74,4.12,7.73.11a.36.36,0,0,0,.21,0,.2.2,0,0,0,.09-.18v-7.87a.37.37,0,0,0-.12-.26C37.05,114.35,36.91,114.25,36.86,114.33Z"/><line class="cls-4" x1="53.8" y1="74.1" x2="65.26" y2="61.21"/><path class="cls-5" d="M66.56,59.74c.27.24-.08,1.1-.8,1.91s-1.51,1.27-1.79,1,.08-1.1.79-1.91S66.28,59.49,66.56,59.74Z"/><polygon class="cls-6" points="24.82 58.44 27 116.75 37.91 117.17 38.61 75.4 42.77 117.17 54.32 117.17 51.19 58.3 24.82 58.44"/><path class="cls-7" d="M11.16,44.4,5.82,25.64,11.74,25l3.86,11c1.22-2.11,4.35-9.09,5.58-11.19,3-5.15,3.77-4.89,7.27-5h4.78l.07-4.79h8.26v4.75H44.4c3.76-.07,9.74.4,10.34,5.47l4.61,38.58-5.55.68L49.67,36l-.41,9.42L51.19,58.3a149.83,149.83,0,0,1-26.37.14l1.84-13.7L25.48,33.11,17.23,45.88C15.59,48.82,12,47.82,11.16,44.4Z"/><path class="cls-3" d="M32,6.15,29.16,9.89c-.28.38,0,.72.37.75l1.44.09s0,0,0-.07a.39.39,0,0,1,.36-.3.39.39,0,0,1,.32.34c0,.11,0,.05,0,.08h.09a.7.7,0,0,0,.1-1.39Z"/><path class="cls-8" d="M37.43,16.51c3.69,0,6.7-3.5,6.7-7.78s-3-7.79-6.7-7.79-6.71,3.5-6.71,7.79S33.73,16.51,37.43,16.51Z"/><path class="cls-9" d="M33.38,4.29l9.88-1.07c3,1.5,3.33,13.27,1.88,14.7-2.78,1.49-5.26,1.95-11.9.8C30.48,17.89,33.8,10.62,33.38,4.29Z"/><path class="cls-3" d="M37.43,5.61c4.28,0,7.78-1.19,7.78-2.65S41.71.31,37.43.31,29.64,1.5,29.64,3,33.14,5.61,37.43,5.61Z"/><path class="cls-10" d="M37.48,2.29a1.15,1.15,0,1,0-1.14-1.14A1.15,1.15,0,0,0,37.48,2.29Z"/><polygon class="cls-8" points="54.37 64.36 58.69 63.83 60.97 69.9 58.99 72.97 54.37 70.86 54.37 64.36"/><path class="cls-11" d="M.09,17.08c-.27.24.08,1.1.8,1.91s1.51,1.27,1.79,1-.08-1.1-.79-1.91S.37,16.83.09,17.08Z"/><path class="cls-7" d="M32.4,6.36H30a2.4,2.4,0,1,0,4.79,0Z"/></g></g></svg>