<svg xmlns="http://www.w3.org/2000/svg" viewBox="0 0 176.44 79.16"><defs><style>.cls-1{fill:#009de2;}.cls-1,.cls-2,.cls-3,.cls-4,.cls-5{fill-rule:evenodd;}.cls-2{fill:#e4007d;}.cls-3{fill:#62c2cf;}.cls-4{fill:#2f2482;}.cls-5{fill:#ee7c00;}</style></defs><title>Ресурс 8airplane</title><g id="Слой_2" data-name="Слой 2"><g id="Слой_1-2" data-name="Слой 1"><path class="cls-1" d="M113.61,62.69H98.52c-2.78,0-5.06,3-5.06,6.64h0C93.46,73,95.74,76,98.52,76h15.2V62.69Z"/><path class="cls-2" d="M113.72,61.52h0A1.37,1.37,0,0,0,112.57,63v12.6a1.37,1.37,0,0,0,1.15,1.51h0a1.37,1.37,0,0,0,1.15-1.51V63A1.37,1.37,0,0,0,113.72,61.52Z"/><path class="cls-1" d="M151.31,29.21H25.75c-6.41,0-11.65,6.88-11.65,15.28h0c0,8.4,5.25,15.33,11.65,15.27l130.07-1.14c6.92-.07,20.62-.41,20.62-10.63C176.44,39.24,157.08,29.21,151.31,29.21Z"/><polygon class="cls-3" points="83.56 60.34 64.62 79.16 72.19 79.16 124.04 54.48 124.04 51.69 74.84 51.69 74.84 54.48 83.56 60.34"/><path class="cls-4" d="M141.33,35.94h0a1.74,1.74,0,0,0-1.46,1.91v2.58a1.74,1.74,0,0,0,1.46,1.91h0a1.74,1.74,0,0,0,1.46-1.91V37.85A1.74,1.74,0,0,0,141.33,35.94Z"/><path class="cls-4" d="M136.87,35.94h0a1.74,1.74,0,0,0-1.46,1.91v2.58a1.74,1.74,0,0,0,1.46,1.91h0a1.73,1.73,0,0,0,1.45-1.91V37.85A1.73,1.73,0,0,0,136.87,35.94Z"/><path class="cls-4" d="M132.4,35.94h0A1.73,1.73,0,0,0,131,37.85v2.58a1.73,1.73,0,0,0,1.45,1.91h0a1.73,1.73,0,0,0,1.46-1.91V37.85A1.73,1.73,0,0,0,132.4,35.94Z"/><path class="cls-4" d="M127.94,35.94h0a1.74,1.74,0,0,0-1.46,1.91v2.58a1.74,1.74,0,0,0,1.46,1.91h0a1.74,1.74,0,0,0,1.46-1.91V37.85A1.74,1.74,0,0,0,127.94,35.94Z"/><path class="cls-4" d="M123.48,35.94h0A1.73,1.73,0,0,0,122,37.85v2.58a1.73,1.73,0,0,0,1.45,1.91h0a1.73,1.73,0,0,0,1.45-1.91V37.85A1.73,1.73,0,0,0,123.48,35.94Z"/><path class="cls-4" d="M119,35.94h0a1.73,1.73,0,0,0-1.45,1.91v2.58A1.73,1.73,0,0,0,119,42.34h0a1.74,1.74,0,0,0,1.46-1.91V37.85A1.74,1.74,0,0,0,119,35.94Z"/><path class="cls-4" d="M114.55,35.94h0a1.74,1.74,0,0,0-1.46,1.91v2.58a1.74,1.74,0,0,0,1.46,1.91h0A1.74,1.74,0,0,0,116,40.43V37.85A1.74,1.74,0,0,0,114.55,35.94Z"/><path class="cls-4" d="M110.09,35.94h0a1.73,1.73,0,0,0-1.45,1.91v2.58a1.73,1.73,0,0,0,1.45,1.91h0a1.73,1.73,0,0,0,1.45-1.91V37.85A1.73,1.73,0,0,0,110.09,35.94Z"/><path class="cls-4" d="M105.62,35.94h0a1.74,1.74,0,0,0-1.46,1.91v2.58a1.74,1.74,0,0,0,1.46,1.91h0a1.74,1.74,0,0,0,1.46-1.91V37.85A1.74,1.74,0,0,0,105.62,35.94Z"/><path class="cls-4" d="M101.16,35.94h0a1.73,1.73,0,0,0-1.46,1.91v2.58a1.73,1.73,0,0,0,1.46,1.91h0a1.73,1.73,0,0,0,1.45-1.91V37.85A1.73,1.73,0,0,0,101.16,35.94Z"/><path class="cls-4" d="M96.69,35.94h0a1.73,1.73,0,0,0-1.45,1.91v2.58a1.73,1.73,0,0,0,1.45,1.91h0a1.73,1.73,0,0,0,1.46-1.91V37.85A1.73,1.73,0,0,0,96.69,35.94Z"/><path class="cls-4" d="M92.23,35.94h0a1.74,1.74,0,0,0-1.46,1.91v2.58a1.74,1.74,0,0,0,1.46,1.91h0a1.74,1.74,0,0,0,1.46-1.91V37.85A1.74,1.74,0,0,0,92.23,35.94Z"/><path class="cls-4" d="M87.77,35.94h0a1.73,1.73,0,0,0-1.45,1.91v2.58a1.73,1.73,0,0,0,1.45,1.91h0a1.73,1.73,0,0,0,1.45-1.91V37.85A1.73,1.73,0,0,0,87.77,35.94Z"/><path class="cls-4" d="M83.3,35.94h0a1.73,1.73,0,0,0-1.45,1.91v2.58a1.73,1.73,0,0,0,1.45,1.91h0a1.74,1.74,0,0,0,1.46-1.91V37.85A1.74,1.74,0,0,0,83.3,35.94Z"/><path class="cls-4" d="M78.84,35.94h0a1.74,1.74,0,0,0-1.46,1.91v2.58a1.74,1.74,0,0,0,1.46,1.91h0a1.73,1.73,0,0,0,1.45-1.91V37.85A1.73,1.73,0,0,0,78.84,35.94Z"/><path class="cls-4" d="M74.38,35.94h0a1.73,1.73,0,0,0-1.45,1.91v2.58a1.73,1.73,0,0,0,1.45,1.91h0a1.73,1.73,0,0,0,1.45-1.91V37.85A1.73,1.73,0,0,0,74.38,35.94Z"/><path class="cls-4" d="M69.91,35.94h0a1.74,1.74,0,0,0-1.46,1.91v2.58a1.74,1.74,0,0,0,1.46,1.91h0a1.74,1.74,0,0,0,1.46-1.91V37.85A1.74,1.74,0,0,0,69.91,35.94Z"/><path class="cls-4" d="M65.45,35.94h0A1.73,1.73,0,0,0,64,37.85v2.58a1.73,1.73,0,0,0,1.46,1.91h0a1.73,1.73,0,0,0,1.45-1.91V37.85A1.73,1.73,0,0,0,65.45,35.94Z"/><path class="cls-4" d="M61,35.94h0a1.73,1.73,0,0,0-1.45,1.91v2.58A1.73,1.73,0,0,0,61,42.34h0a1.73,1.73,0,0,0,1.46-1.91V37.85A1.73,1.73,0,0,0,61,35.94Z"/><path class="cls-5" d="M173,41.43H151.45c-1.44,0-2.62-1.55-2.62-3.44s1.18-3.43,2.62-3.43h13.37a37,37,0,0,1,8.53,6.84A1.87,1.87,0,0,1,173,41.43Z"/><polygon class="cls-3" points="49.15 48.72 14.62 48.88 0 0 7.57 0 49.15 48.72"/></g></g></svg>