<svg xmlns="http://www.w3.org/2000/svg" xmlns:xlink="http://www.w3.org/1999/xlink" viewBox="0 0 134.6 187.67"><defs><style>.cls-1,.cls-3,.cls-4,.cls-5,.cls-6,.cls-9{fill:none;}.cls-1{clip-rule:evenodd;}.cls-10,.cls-12,.cls-13,.cls-14,.cls-15,.cls-16,.cls-17,.cls-18,.cls-19,.cls-2,.cls-21,.cls-22,.cls-23,.cls-24,.cls-25,.cls-26,.cls-27,.cls-28,.cls-29,.cls-7{fill-rule:evenodd;}.cls-2{fill:url(#GradientFill_77);}.cls-3,.cls-5,.cls-7,.cls-9{stroke:#e2000f;}.cls-3,.cls-4,.cls-5,.cls-6,.cls-7,.cls-9{stroke-miterlimit:22.93;}.cls-3{stroke-width:0.6px;}.cls-4,.cls-6{stroke:#ee7c00;}.cls-4,.cls-7{stroke-width:0.61px;}.cls-5{stroke-width:0.63px;}.cls-6{stroke-width:0.63px;}.cls-7,.cls-8{fill:#e2000f;}.cls-9{stroke-width:0.78px;}.cls-10{fill:url(#GradientFill_166);}.cls-11{fill:url(#GradientFill_166-2);}.cls-12{fill:url(#GradientFill_166-3);}.cls-13{fill:url(#GradientFill_89);}.cls-14{fill:#281a5e;}.cls-15{fill:#009de2;}.cls-16{fill:#ffec00;}.cls-17{fill:#a0d8f7;}.cls-18{fill:#e4007d;}.cls-19{fill:#a51380;}.cls-20{clip-path:url(#clip-path);}.cls-21{fill:#1a1a18;}.cls-22{fill:url(#GradientFill_105);}.cls-23{fill:url(#GradientFill_77-2);}.cls-24{fill:#ee7c00;}.cls-25{fill:url(#GradientFill_77-3);}.cls-26{fill:url(#GradientFill_135);}.cls-27{fill:url(#GradientFill_135-2);}.cls-28{fill:url(#GradientFill_135-3);}.cls-29{fill:url(#GradientFill_135-4);}</style><linearGradient id="GradientFill_77" x1="85.31" y1="170.55" x2="56.66" y2="170.55" gradientUnits="userSpaceOnUse"><stop offset="0" stop-color="#ee7c00"/><stop offset="1" stop-color="#e2000f"/></linearGradient><linearGradient id="GradientFill_166" x1="86.75" y1="106.59" x2="53.8" y2="40.03" gradientUnits="userSpaceOnUse"><stop offset="0" stop-color="#009de2"/><stop offset="1" stop-color="#a0d8f7"/></linearGradient><linearGradient id="GradientFill_166-2" x1="55.68" y1="100.08" x2="79" y2="34.29" xlink:href="#GradientFill_166"/><linearGradient id="GradientFill_166-3" x1="90.64" y1="84.43" x2="51.1" y2="55.41" xlink:href="#GradientFill_166"/><linearGradient id="GradientFill_89" x1="75.01" y1="3.73" x2="60.69" y2="121.74" gradientUnits="userSpaceOnUse"><stop offset="0" stop-color="#a0d8f7"/><stop offset="1" stop-color="#009de2"/></linearGradient><clipPath id="clip-path"><path class="cls-1" d="M42.34,137.44c.06.08.44-.85,1.35.37a1.07,1.07,0,0,0,.76.38c.13,2.74-4.05,2.64-2.76-.31C41.12,137,41.86,136.78,42.34,137.44Z"/></clipPath><linearGradient id="GradientFill_105" x1="40.64" y1="128.28" x2="46.71" y2="136.61" gradientUnits="userSpaceOnUse"><stop offset="0" stop-color="#008ad1"/><stop offset="1" stop-color="#2f2482"/></linearGradient><linearGradient id="GradientFill_77-2" x1="42.78" y1="122.16" x2="44.68" y2="128.1" xlink:href="#GradientFill_77"/><linearGradient id="GradientFill_77-3" x1="47.56" y1="124.02" x2="50.92" y2="129.24" xlink:href="#GradientFill_77"/><linearGradient id="GradientFill_135" x1="33.66" y1="133.09" x2="33.69" y2="134" gradientUnits="userSpaceOnUse"><stop offset="0" stop-color="#a0d8f7"/><stop offset="1" stop-color="#008ad1"/></linearGradient><linearGradient id="GradientFill_135-2" x1="33.56" y1="132.51" x2="33.63" y2="133.2" xlink:href="#GradientFill_135"/><linearGradient id="GradientFill_135-3" x1="33.52" y1="131.58" x2="33.59" y2="132.38" xlink:href="#GradientFill_135"/><linearGradient id="GradientFill_135-4" x1="33.47" y1="131.14" x2="33.5" y2="131.91" xlink:href="#GradientFill_135"/></defs><title>Ресурс 1baloon</title><g id="Слой_2" data-name="Слой 2"><g id="Слой_1-2" data-name="Слой 1"><polygon class="cls-2" points="85.31 153.74 49.28 153.74 54.43 187.36 80.17 187.36 85.31 153.74"/><line class="cls-3" x1="54.43" y1="187.36" x2="44.35" y2="121.48"/><line class="cls-4" x1="80.17" y1="187.36" x2="90.25" y2="121.48"/><line class="cls-5" x1="60.95" y1="187.36" x2="55.64" y2="121.48"/><line class="cls-6" x1="73.65" y1="187.36" x2="78.96" y2="121.48"/><polygon class="cls-7" points="81.43 179.13 53.17 179.13 54.43 187.36 80.17 187.36 81.43 179.13"/><rect class="cls-8" x="46.86" y="153.91" width="40.87" height="3.6" rx="1.8" ry="1.8"/><line class="cls-9" x1="67.3" y1="187.36" x2="67.3" y2="134.59"/><path class="cls-10" d="M120.22,108.87a67.29,67.29,0,1,1-11.35-94.49A67.29,67.29,0,0,1,120.22,108.87Z"/><ellipse class="cls-11" cx="67.3" cy="67.3" rx="49.84" ry="67.3"/><path class="cls-12" d="M86.52,108.87c-8.34,29.23-23.71,34.31-34.33,11.35S39.73,55,48.07,25.73,71.78-8.58,82.4,14.38,94.87,79.64,86.52,108.87Z"/><path class="cls-13" d="M64.48,108.87c1.22,29.23,3.48,34.31,5,11.35s1.83-65.27.6-94.49-3.48-34.31-5-11.35S63.25,79.64,64.48,108.87Z"/><polygon class="cls-14" points="50.09 133.85 53.41 136.66 58.42 137.12 67.29 136.35 75.43 153.74 49.57 153.74 48.05 150.07 43.07 156.39 41.49 156.4 31.98 134.48 34.89 133.65 42.6 148.83 46.22 143.54 48.02 142.27 45.49 140.68 50.09 133.85"/><path class="cls-15" d="M32.88,135.17a2,2,0,1,0-1.8-1.94A1.88,1.88,0,0,0,32.88,135.17Z"/><polygon class="cls-16" points="26.53 121.86 27.66 122.34 28.84 121.56 30.39 122.38 31.91 121.44 33.48 122.38 34.23 121.59 35.32 122.23 36.83 120.99 37.95 121.76 34.81 131.69 34.81 133.28 39.44 138.43 38.59 139.49 36.53 138.77 35.42 140.41 33.77 139.57 32.77 140.31 31.46 139.52 30.16 139.94 32.39 133.56 26.53 121.86"/><path class="cls-17" d="M49.76,135.89a11.61,11.61,0,0,1-3.69,4.67c-3.58,2.14-6.13,1-6.38-5.66l.75-3.06C41.36,122.81,53.49,125.53,49.76,135.89Z"/><path class="cls-18" d="M43.17,132.37l-.24-.1-2.19,2.88a.45.45,0,0,0,.26.74l1.15.25s0,0,0-.08.15-.27.3-.24.25.26.24.36,0,0,0,.07h.08c.51.11.89-1,.13-1.31Z"/><path class="cls-19" d="M42.34,137.44c.06.08.44-.85,1.35.37a1.07,1.07,0,0,0,.76.38c.13,2.74-4.05,2.64-2.76-.31C41.12,137,41.86,136.78,42.34,137.44Z"/><g class="cls-20"><path class="cls-21" d="M42.46,137.89c0,.06.33-.65,1,.27a.82.82,0,0,0,.57.29c.1,2.06-3.59,1.83-2.41-.53C41.2,137.23,42.1,137.39,42.46,137.89Z"/></g><path class="cls-22" d="M46,130.84A1.9,1.9,0,1,1,43.66,133l-1.25-.33a1.68,1.68,0,0,1-2.95-1.42,1.67,1.67,0,1,1,3.26.77.24.24,0,0,1,0,.08l1,.27s0-.05,0-.08A1.89,1.89,0,0,1,46,130.84Z"/><path class="cls-23" d="M44.21,122.7a2.32,2.32,0,1,1-2.79,1.73A2.32,2.32,0,0,1,44.21,122.7Z"/><path class="cls-24" d="M41.44,128.67C43,129.81,48,130.29,48,130.41l-.78,6.11,1.39.09.83-6.22a2,2,0,0,0,.84-.1C49,125.89,43.74,125,41.44,128.67Z"/><path class="cls-25" d="M49.9,124.15a2.63,2.63,0,1,1-3.17,2A2.63,2.63,0,0,1,49.9,124.15Z"/><path class="cls-26" d="M32.53,134.2l2.51-.69a.32.32,0,0,0,.16-.41h0a.34.34,0,0,0-.39-.26l-2.5.7c-.15,0-.21.22-.16.41h0A.33.33,0,0,0,32.53,134.2Z"/><path class="cls-27" d="M32.31,133.54l2.78-.78a.3.3,0,0,0,.16-.41h0a.34.34,0,0,0-.38-.25l-2.79.77a.31.31,0,0,0-.15.41h0A.35.35,0,0,0,32.31,133.54Z"/><path class="cls-28" d="M32.08,132.87l3.19-.89a.3.3,0,0,0,.16-.4h0a.35.35,0,0,0-.39-.26l-3.18.89a.3.3,0,0,0-.16.41h0A.34.34,0,0,0,32.08,132.87Z"/><path class="cls-29" d="M31.86,132.21l3.46-1a.31.31,0,0,0,.16-.41h0a.35.35,0,0,0-.38-.26l-3.47,1a.3.3,0,0,0-.15.41h0A.35.35,0,0,0,31.86,132.21Z"/></g></g></svg>