<svg xmlns="http://www.w3.org/2000/svg" xmlns:xlink="http://www.w3.org/1999/xlink" viewBox="0 0 79.86 166.52"><defs><style>.cls-1{fill:#a65a44;}.cls-1,.cls-10,.cls-11,.cls-12,.cls-13,.cls-2,.cls-3,.cls-4,.cls-5,.cls-6,.cls-7,.cls-8,.cls-9{fill-rule:evenodd;}.cls-2{fill:#cb6c32;}.cls-3{fill:url(#GradientFill_23);}.cls-4{fill:#6a1f00;}.cls-5{fill:#fc0;}.cls-6{fill:url(#GradientFill_108);}.cls-7{fill:#f07e3b;}.cls-8{fill:#575656;}.cls-9{fill:#3b3b3a;}.cls-10{fill:#868575;}.cls-11{fill:none;stroke:#f7a940;stroke-linecap:round;stroke-linejoin:round;stroke-width:1.18px;}.cls-12{fill:#d9dada;}.cls-13{fill:url(#GradientFill_143);}</style><linearGradient id="GradientFill_23" x1="46.05" y1="27.16" x2="48.04" y2="18.8" gradientUnits="userSpaceOnUse"><stop offset="0" stop-color="#fc0"/><stop offset="1" stop-color="#ef7c00"/></linearGradient><linearGradient id="GradientFill_108" x1="42.3" y1="15.23" x2="48.66" y2="15.64" gradientUnits="userSpaceOnUse"><stop offset="0" stop-color="#ef7c00"/><stop offset="1" stop-color="#e3000f"/></linearGradient><linearGradient id="GradientFill_143" x1="6.31" y1="50.44" x2="15.42" y2="48.97" gradientUnits="userSpaceOnUse"><stop offset="0" stop-color="#ffed00"/><stop offset="1" stop-color="#ef7c00"/></linearGradient></defs><title>Ресурс 1rozhd</title><g id="Слой_2" data-name="Слой 2"><g id="Layer_1" data-name="Layer 1"><path class="cls-1" d="M45,157l-16.48,1.52-4,1c-5.91,1.53-6.9,4.39-6.9,7h0l27.39-.27Z"/><path class="cls-2" d="M67.08,157l-15.39,1.11-4,1.17c-5.56,1.65-6.54,4.39-6.54,7h0l26-.27Z"/><polygon class="cls-3" points="50.8 21.65 43.08 22.16 42.49 27.02 37.85 27.37 39.82 32.29 48.57 33.93 53.98 28.14 51.29 27.7 50.8 21.65"/><polygon class="cls-4" points="30.04 72.18 64.82 72.18 66.02 78.67 67.15 158.48 53.5 158.48 51.74 158.48 48.55 92.09 45.11 158.48 29.96 158.49 30.04 72.18"/><path class="cls-1" d="M39.32,27.21l-8.53.93c-2.22.12-6.21,4-7.92,8.9l6.75,3.39L26,76.62H68.67l-1.5-33.3,5-.33c-.75-11.45-.77-12.28-4-13.33l-10.1-1.61L51.27,26.7l.13-3a18.29,18.29,0,0,1-8.85.26v2.62Z"/><path class="cls-5" d="M51.82,9.29c-1-7.77-16.1-6.89-15.56,0,.22,2.82-.15,4,.38,6.57.25,1.23,1.54,3.65,1.66,5.07.17,2.23.91,3,2.17,3.72,1.1.65-.31,1.33,3.54,1.32,2.37,0,2.35-1,3.44-1.63,1.95-1.14,3.61-2.48,4.33-4.52A43.47,43.47,0,0,0,51.82,9.29Z"/><path class="cls-6" d="M43.5,11.93l-1.65-.18c-.63,2.88-.29,2.68-1.53,5.1-.91,1.58.82,2.19,1.9,1.46h.61a.51.51,0,0,1,.47-.44.6.6,0,0,1,.53.44c0,.14,0,.07,0,.1H44a1.2,1.2,0,1,0-.18-2.4Z"/><path class="cls-7" d="M43.23,19.89s-.66.39-1,.38-1-.34-1.08-.24l-1.47,1.3c.06.49,0,1.26,2.1,1.29,2.73.05,4.55-1.07,4.28-1.67Z"/><path class="cls-5" d="M52.62,10.78c-.89.07-1.31.67-1.29,1.9s.07,1.36.13,2.73c0,.44,0,1,.49,1.09s.83-.26.93-.87,1.41-.82,1.37-2.76C54.23,11.74,53.5,10.71,52.62,10.78Z"/><path class="cls-8" d="M39,11.59a1.48,1.48,0,0,1,1.74,1.07,1.38,1.38,0,0,1-1.16,1.61A1.48,1.48,0,0,1,37.8,13.2,1.38,1.38,0,0,1,39,11.59Z"/><path class="cls-8" d="M45.69,11.2a1.74,1.74,0,0,1,2,1.15,1.49,1.49,0,0,1-1.36,1.73,1.74,1.74,0,0,1-2-1.15A1.5,1.5,0,0,1,45.69,11.2Z"/><path class="cls-9" d="M53,10.82,52,11s-.52,4.6-.59,3.37a19.9,19.9,0,0,1-1.08-3.56C50.21,9.76,50,8,50,7.87c-1.36-5.39-7.89-2.11-8-2.18-4.59-2.11-5.72,2.18-5.59,5.66v1.28c-.67,0-1.48-.77-1.58-2.11-.87-12,6-10.17,6.72-9C45.23-2,59.53.52,53,10.82Z"/><path class="cls-7" d="M48.66,15.11a.65.65,0,0,0,.65-.65.65.65,0,1,0-1.3,0A.65.65,0,0,0,48.66,15.11Z"/><path class="cls-10" d="M42.54,26.59,40.78,39.73l2.56,24.76-1,22.94L24.51,84.09l2-23.42-2.62,8-6.63,1.85-12-15.89,7.2-5.1,5.5,4.62L20.4,37c2-5,6.44-8.56,10.47-9.21Z"/><path class="cls-10" d="M51.33,25.2l-.12,1.55,4.11,9.59L53.8,66.15l1,22.94,16.71-3L70.41,71,79,67.87l.84-7.35-4.12-17c-2-5-4.34-14-8.37-14.67Z"/><path class="cls-5" d="M36.71,11.08l.8,1.67c.74-1,2.15-.93,3.76.06L41,10.61Z"/><path class="cls-11" d="M41.34,11.39c-.85-1.13-1.84-1.46-3.78-1.25"/><path class="cls-5" d="M43.25,10.73l.88,1.83c.82-1.14,2.37-1,4.13.07L48,10.21Z"/><path class="cls-11" d="M44,11.19c.8-1.75,3.33-2.1,5-.55"/><path class="cls-1" d="M40.65,12.47A1.51,1.51,0,0,0,39,11.59a1.47,1.47,0,0,0-1.05.75A2.66,2.66,0,0,1,40.65,12.47Z"/><path class="cls-1" d="M47.73,12.33a1.76,1.76,0,0,0-2-1.13,1.65,1.65,0,0,0-1.35,1.11C45.1,11.54,46.32,11.6,47.73,12.33Z"/><polygon class="cls-12" points="18.54 33.27 0 37.01 7.38 62.41 25.92 58.68 18.54 33.27"/><path class="cls-13" d="M2.8,46.66c.28,1.5,8.24-2.82,8.92-.87h0A1,1,0,0,1,11,47c-.67.27-5.71.94-5.58,1.31s5.66-.94,6.49-1.18a.92.92,0,0,1,1.23.56h0c.11.48-.31.91-.84,1.17-1.1.54-6.48,1.35-6.51,1.84s4.68-.83,5.32-.94a.86.86,0,0,1,1.1.72h0a1.15,1.15,0,0,1-1,1.08c-.65.11-6.36,1.6-6.45,1.73-.43.66,3.43-.9,3.83-.9a.81.81,0,0,1,.89.89h0c-.08.49-.63.75-1.17.91l-3.08.9c-.78.22-1.49,0-2.09-1.23a27.34,27.34,0,0,1-1.62-5.52C1.4,47.69,2,47.18,2.8,46.66Z"/></g></g></svg>