<svg xmlns="http://www.w3.org/2000/svg" viewBox="0 0 46.73 140.08"><defs><style>.cls-1{fill:#00953f;}.cls-1,.cls-10,.cls-5,.cls-6,.cls-8,.cls-9{fill-rule:evenodd;}.cls-2{fill:#2f2482;}.cls-3{fill:#000003;}.cls-4{fill:#575656;}.cls-5{fill:#f4b3d1;}.cls-6{fill:#a51380;}.cls-7,.cls-8{fill:#1a1a18;}.cls-9{fill:#e2000f;}.cls-10{fill:#4f1e71;}</style></defs><title>Ресурс 10thef</title><g id="Слой_2" data-name="Слой 2"><g id="Слой_1-2" data-name="Слой 1"><path class="cls-1" d="M27,126l-11.07,1.27c-1.78,2.26-5.47,4.34-11.1,4.06-4.4-.23-5.45,5.14-4.52,7.05H27Z"/><rect class="cls-2" x="0.31" y="138.05" width="26.69" height="2.02"/><rect class="cls-3" x="13.92" y="104.11" width="13.84" height="24.02"/><rect class="cls-4" x="13.27" y="123.68" width="15.13" height="4.45"/><path class="cls-5" d="M15.63,1.57C8.09,1.57,5.1,10.7,5.1,16.18S5.73,21.74,6.82,24H25.61c1.09-2.26-.7.84,1.73-7.82S23.16,1.57,15.63,1.57Z"/><path class="cls-6" d="M6.73,8.54,1.34,16.6c-.51.82,0,1.48.86,1.48h3s0,.05,0-.16a.81.81,0,0,1,.7-.65.81.81,0,0,1,.7.65c0,.21,0,.11,0,.16h.2a1.45,1.45,0,0,0,0-2.88Z"/><rect class="cls-7" x="9.67" y="7.52" width="5.51" height="1.07"/><path class="cls-8" d="M10.82,9.65A1.11,1.11,0,0,0,12,8.59a1.15,1.15,0,0,0-2.3,0A1.11,1.11,0,0,0,10.82,9.65Z"/><path class="cls-9" d="M10.65,3.19c20.89-1.62.51,12.87,16.1,15.18C34.85,2.57,17.29-4.66,10.65,3.19Z"/><polygon class="cls-10" points="29.12 11 5.1 19.44 6.09 24.73 3.39 39.64 4.57 110.56 46.73 118.32 31.02 25.45 27.6 19.52 29.12 11"/></g></g></svg>