<svg xmlns="http://www.w3.org/2000/svg" xmlns:xlink="http://www.w3.org/1999/xlink" viewBox="0 0 103.37 99.33"><defs><style>.cls-1{fill:#ffcb00;}.cls-1,.cls-10,.cls-12,.cls-13,.cls-2,.cls-3,.cls-4,.cls-5,.cls-6,.cls-7,.cls-8,.cls-9{fill-rule:evenodd;}.cls-2{fill:url(#GradientFill_80);}.cls-3{fill:#009de2;}.cls-4{fill:#2f2482;}.cls-11,.cls-5{fill:#ee7c00;}.cls-6{fill:#e30045;}.cls-7{fill:none;stroke:#ee7c00;stroke-linecap:round;stroke-linejoin:round;stroke-width:0.78px;}.cls-8{fill:url(#GradientFill_159);}.cls-9{fill:url(#GradientFill_159-2);}.cls-10{fill:url(#GradientFill_80-2);}.cls-12{fill:url(#GradientFill_78);}.cls-13{fill:#e2000f;}</style><linearGradient id="GradientFill_80" x1="44.83" y1="39.07" x2="49.99" y2="35.17" gradientUnits="userSpaceOnUse"><stop offset="0" stop-color="#2f2482"/><stop offset="1" stop-color="#e30045"/></linearGradient><linearGradient id="GradientFill_159" x1="54.81" y1="13.09" x2="50.64" y2="19.98" gradientUnits="userSpaceOnUse"><stop offset="0" stop-color="#009de2"/><stop offset="1" stop-color="#62c2cf"/></linearGradient><linearGradient id="GradientFill_159-2" x1="61.81" y1="16.57" x2="57.65" y2="23.46" xlink:href="#GradientFill_159"/><linearGradient id="GradientFill_80-2" x1="30.59" y1="46.02" x2="40.65" y2="44.48" xlink:href="#GradientFill_80"/><linearGradient id="GradientFill_78" x1="91.71" y1="83.39" x2="92.21" y2="92.65" gradientUnits="userSpaceOnUse"><stop offset="0" stop-color="#009de2"/><stop offset="1" stop-color="#2f2482"/></linearGradient></defs><title>Ресурс 12bird_lady</title><g id="Слой_2" data-name="Слой 2"><g id="Слой_1-2" data-name="Слой 1"><path class="cls-1" d="M57.58,42.36l3.64,2.23c1.19-.29,2.45.33,3.71.41l4.8.29a.88.88,0,0,1,.84.79h0a.71.71,0,0,1-.79.7l-3.09-.19c-1.94.55,6.78,2.86,6.17,4.34h0a.76.76,0,0,1-1,.34c-.48-.2-4.76-2.35-4.88-1.86s4.37,2.79,4.93,3.1a.74.74,0,0,1,.34,1h0a.85.85,0,0,1-1,.22c-.85-.28-4.83-2.92-5.1-2.66s3.17,2.7,3.56,3a.7.7,0,0,1,.18,1h0a.82.82,0,0,1-1.09.08c-.39-.29-4.4-3.29-4.52-3.26-.57.15,2,2.59,2.25,2.81a.66.66,0,0,1,0,1h0a.83.83,0,0,1-1.08-.1L62.2,52.32c-.25-.27-1.08-.86-1.46-1.18-1.52-1.27-2.16-2.1-2.21-2.92l-3.31-2Z"/><path class="cls-2" d="M32.67,37.24l26,16.51,7.75-11.56-26-16.51c-4.68-3-11.74-1.7-11.74,1.7h0C26.85,30.25,28,34.27,32.67,37.24Z"/><path class="cls-3" d="M35.31,98.26H27.72V93.58h0v-7.2h7.59v2.53h8.24c2.24,0,4.07,2.1,4.07,4.67h0c0,2.57-1.83,4.68-4.07,4.68Z"/><path class="cls-4" d="M22,98.26H14.41V93.58h0v-7.2H22v2.53h8.24c2.24,0,4.07,2.1,4.07,4.67h0c0,2.57-1.83,4.68-4.07,4.68Z"/><path class="cls-5" d="M51.27,61.92a4.53,4.53,0,1,0-4.53-4.53A4.54,4.54,0,0,0,51.27,61.92Z"/><path class="cls-1" d="M39.38,60.89l.86,1.16,6.08,1c1.32-.08,4.34.22,6.35,0,1-.45,1.41-.75,2-1,1.36-.12,1-1.31.54-1.32l-2.69.6c-2-.38-2.29-.73-4.12-.76-2.73-3-4.21-2.84-7.3-3.69l-3.3.86Z"/><path class="cls-6" d="M48.73,23.88C36.78,41,38.58,71.3,52.16,88.18c-24.4,6.89-46.67,4.81-47.93,0A57.12,57.12,0,0,1,35.6,13.65Z"/><path class="cls-5" d="M46.13,2.85C51.31,2.38,55.9,4.43,57,8,58.18,12,54.21,16.54,48.1,18s-12.05-.63-13.27-4.71c-1.16-3.89,2.4-8.17,8-9.83a2.31,2.31,0,0,1-.46-.83A2,2,0,0,1,43.69.08a2,2,0,0,1,2.47,1.44A2.15,2.15,0,0,1,46.13,2.85Z"/><path class="cls-1" d="M37.08,16.31A10.35,10.35,0,1,0,57.66,17.9a10.29,10.29,0,0,0-1.42-5.23C55.47,11.36,46.64,9.24,37.08,16.31Z"/><path class="cls-7" d="M46,23.71A2.65,2.65,0,0,0,47.44,27"/><path class="cls-8" d="M51.88,21.41a3.47,3.47,0,1,0-3.47-3.47A3.47,3.47,0,0,0,51.88,21.41Z"/><path class="cls-9" d="M59.78,23.4a3.47,3.47,0,1,0-3.46-3.47A3.48,3.48,0,0,0,59.78,23.4Z"/><path class="cls-5" d="M55.8,19.93l1.39.62-.14,5.65c0,1.54.24,3.22-1.06,2.64L52.52,27.3c-1.31-.92-.36-2.76,1-2.17Z"/><path class="cls-10" d="M23.77,38.32,37.67,65l13.6-7.77L35,31.05C30,23,17.3,25.91,23.77,38.32Z"/><rect class="cls-11" x="87.72" y="92.3" width="1.16" height="3.98"/><rect class="cls-11" x="87.72" y="95.7" width="1.16" height="3.33" rx="0.58" ry="0.58"/><path class="cls-5" d="M88.73,95.89h0a.57.57,0,0,0-.82,0L86.3,97.3a.58.58,0,0,0,0,.82h0a.57.57,0,0,0,.82,0l1.62-1.45A.57.57,0,0,0,88.73,95.89Z"/><path class="cls-5" d="M85.56,96.39h0a.6.6,0,0,0,.56.61l2.17.09a.58.58,0,0,0,.6-.56h0a.57.57,0,0,0-.55-.6l-2.17-.1A.6.6,0,0,0,85.56,96.39Z"/><rect class="cls-11" x="91.66" y="93.24" width="1.16" height="3.34"/><rect class="cls-11" x="91.66" y="95.99" width="1.16" height="3.34" rx="0.58" ry="0.58"/><path class="cls-5" d="M92.68,96.18h0a.57.57,0,0,0-.82,0l-1.62,1.45a.57.57,0,0,0,0,.82h0a.58.58,0,0,0,.82,0L92.63,97A.6.6,0,0,0,92.68,96.18Z"/><path class="cls-5" d="M91.8,96.19h0a.58.58,0,0,0,.06.82l1.65,1.42a.58.58,0,0,0,.82-.06h0a.58.58,0,0,0-.06-.82l-1.65-1.42A.58.58,0,0,0,91.8,96.19Z"/><path class="cls-4" d="M79.21,76.38a11,11,0,0,0-10.39.42,11,11,0,0,0,16.49,8A11,11,0,0,0,79.21,76.38Z"/><path class="cls-12" d="M80.55,74.25h0v.07a3.12,3.12,0,0,0,.6,1.78,1.65,1.65,0,0,1,0,1.12C78,84,81.46,90.59,88,93.08c7.89,3,16.24-3.52,15.29-11.69-6.65,4.83-15.16,1.25-17-4a4.21,4.21,0,0,1,.38-2.08,3.07,3.07,0,0,0,.14-.52,1.62,1.62,0,0,0,0-.56h0a3.14,3.14,0,0,0-6.28,0Z"/><polygon class="cls-13" points="80.6 72.21 78.9 72.75 81.83 74.16 82.78 72.98 80.43 70.17 80.6 72.21"/><path class="cls-4" d="M84.62,73a.47.47,0,0,0,.47-.47.48.48,0,0,0-.47-.48.49.49,0,0,0-.48.48A.48.48,0,0,0,84.62,73Z"/><path class="cls-4" d="M83.05,71.84a.48.48,0,0,0,.47-.48.48.48,0,0,0-1,0A.48.48,0,0,0,83.05,71.84Z"/><path class="cls-4" d="M89.94,75a11.81,11.81,0,0,1,11.16.45,11.82,11.82,0,0,1-17.71,8.6A11.79,11.79,0,0,1,89.94,75Z"/><circle class="cls-11" cx="65.49" cy="92.6" r="1.21"/><path class="cls-5" d="M63.82,68.67a.45.45,0,1,0,.82-.39.45.45,0,1,0-.82.39Z"/><path class="cls-5" d="M72.9,74a1.09,1.09,0,0,0,2-.94,1.09,1.09,0,1,0-2,.94Z"/><path class="cls-5" d="M63.79,78.34a.47.47,0,0,0,.61.22.46.46,0,1,0-.61-.22Z"/><path class="cls-5" d="M61.09,50.2a.46.46,0,0,0,.61.21.46.46,0,0,0,.22-.61.46.46,0,0,0-.83.4Z"/><path class="cls-5" d="M71.27,55.42a.46.46,0,0,0,.61.22.46.46,0,0,0,.21-.61.45.45,0,0,0-.61-.22A.46.46,0,0,0,71.27,55.42Z"/><path class="cls-5" d="M65.19,61.38a1.09,1.09,0,1,0,.52-1.45A1.09,1.09,0,0,0,65.19,61.38Z"/><path class="cls-5" d="M58.61,71.64a.85.85,0,0,0,1.13.4.84.84,0,0,0,.4-1.12.85.85,0,0,0-1.13-.4A.84.84,0,0,0,58.61,71.64Z"/><path class="cls-5" d="M58.85,61.31a.84.84,0,1,0,.4-1.12A.84.84,0,0,0,58.85,61.31Z"/><path class="cls-5" d="M56.37,44.75a.84.84,0,0,0,1.12.4.85.85,0,1,0-1.12-.4Z"/><path class="cls-5" d="M65.9,51.06a.84.84,0,1,0,.4-1.12A.84.84,0,0,0,65.9,51.06Z"/><path class="cls-5" d="M67.15,74.27a.84.84,0,1,0,.4-1.12A.84.84,0,0,0,67.15,74.27Z"/><path class="cls-5" d="M58.19,75.85a.84.84,0,1,0,.4-1.13A.85.85,0,0,0,58.19,75.85Z"/><path class="cls-5" d="M53.7,69.7a.46.46,0,1,0,.22-.61A.45.45,0,0,0,53.7,69.7Z"/><path class="cls-5" d="M60.07,66.68a.45.45,0,0,0,.82-.39.46.46,0,0,0-.61-.22A.46.46,0,0,0,60.07,66.68Z"/><path class="cls-5" d="M63,74a.46.46,0,0,0,.61.22.46.46,0,1,0-.39-.83A.46.46,0,0,0,63,74Z"/><path class="cls-5" d="M69.86,70.31a.46.46,0,0,0,.61.22.46.46,0,0,0,.21-.61.46.46,0,0,0-.61-.22A.46.46,0,0,0,69.86,70.31Z"/><path class="cls-5" d="M62.39,56.54a.46.46,0,0,0,.61.21.45.45,0,1,0-.61-.21Z"/><path class="cls-5" d="M59.44,55.79a.46.46,0,0,0,.61.22.47.47,0,0,0,.22-.61.46.46,0,0,0-.61-.21A.45.45,0,0,0,59.44,55.79Z"/><path class="cls-5" d="M62.83,45.67a.46.46,0,1,0,.22-.61A.47.47,0,0,0,62.83,45.67Z"/><path class="cls-5" d="M67.24,56a.46.46,0,1,0,.22-.61A.46.46,0,0,0,67.24,56Z"/><path class="cls-5" d="M67,65.18a.46.46,0,0,0,.61.22.46.46,0,1,0-.61-.22Z"/><path class="cls-5" d="M71.35,63.62a.46.46,0,1,0,.83-.39.47.47,0,0,0-.61-.22A.46.46,0,0,0,71.35,63.62Z"/><path class="cls-5" d="M70.21,77.86a.46.46,0,0,0,.83-.39.46.46,0,0,0-.83.39Z"/><path class="cls-5" d="M67.33,80.92a.46.46,0,0,0,.83-.39.46.46,0,1,0-.83.39Z"/><path class="cls-5" d="M75.65,82.53a.46.46,0,0,0,.61.21.46.46,0,0,0,.22-.61.46.46,0,0,0-.61-.21A.45.45,0,0,0,75.65,82.53Z"/><path class="cls-5" d="M75.78,78.6a.45.45,0,1,0,.82-.39A.46.46,0,0,0,76,78,.46.46,0,0,0,75.78,78.6Z"/><path class="cls-5" d="M75,68.3a.45.45,0,1,0,.82-.39.45.45,0,0,0-.6-.22A.46.46,0,0,0,75,68.3Z"/></g></g></svg>