<svg xmlns="http://www.w3.org/2000/svg" xmlns:xlink="http://www.w3.org/1999/xlink" viewBox="0 0 122.94 111.19"><defs><style>.cls-1,.cls-19,.cls-20{fill:none;}.cls-1{clip-rule:evenodd;}.cls-2{fill:#fff;}.cls-10,.cls-11,.cls-12,.cls-13,.cls-14,.cls-15,.cls-16,.cls-17,.cls-18,.cls-19,.cls-2,.cls-20,.cls-21,.cls-23,.cls-24,.cls-25,.cls-3,.cls-4,.cls-5,.cls-6,.cls-7,.cls-8,.cls-9{fill-rule:evenodd;}.cls-3{fill:url(#GradientFill_166);}.cls-4{fill:url(#GradientFill_167);}.cls-5{fill:url(#GradientFill_168);}.cls-6{fill:#e3000f;}.cls-10,.cls-7{fill:#ef7c00;}.cls-7{opacity:0.8;}.cls-15,.cls-8{fill:#fc0;}.cls-8{opacity:0.85;}.cls-9{fill:#2b1c65;}.cls-11{fill:url(#GradientFill_78);}.cls-12{fill:url(#GradientFill_166-2);}.cls-13{fill:url(#GradientFill_168-2);}.cls-14{fill:url(#GradientFill_169);}.cls-16{fill:#e5007d;}.cls-17{fill:url(#GradientFill_170);}.cls-18{fill:url(#GradientFill_100);}.cls-19{stroke:#1a1a18;stroke-linecap:round;stroke-width:0.49px;}.cls-19,.cls-20{stroke-miterlimit:22.93;}.cls-20{stroke:#002828;stroke-width:2.55px;}.cls-21{fill:url(#GradientFill_171);}.cls-22{clip-path:url(#clip-path);}.cls-23{fill:#a69ccd;}.cls-24{fill:url(#GradientFill_143);}.cls-25{fill:url(#GradientFill_78-2);}</style><linearGradient id="GradientFill_166" x1="49.97" y1="25.71" x2="54.88" y2="37.56" gradientUnits="userSpaceOnUse"><stop offset="0" stop-color="#ef7c00"/><stop offset="1" stop-color="#ffed00"/></linearGradient><linearGradient id="GradientFill_167" x1="76.76" y1="42.31" x2="60.42" y2="19.25" gradientUnits="userSpaceOnUse"><stop offset="0" stop-color="#e40045"/><stop offset="1" stop-color="#f6b1b5"/></linearGradient><linearGradient id="GradientFill_168" x1="38.19" y1="27.58" x2="64.61" y2="22.72" gradientUnits="userSpaceOnUse"><stop offset="0" stop-color="#a65a44"/><stop offset="1" stop-color="#e3000f"/></linearGradient><linearGradient id="GradientFill_78" x1="89.65" y1="22.95" x2="89.13" y2="38.51" gradientUnits="userSpaceOnUse"><stop offset="0" stop-color="#009ee3"/><stop offset="1" stop-color="#2f2483"/></linearGradient><linearGradient id="GradientFill_166-2" x1="42.24" y1="37.56" x2="48.54" y2="46.24" xlink:href="#GradientFill_166"/><linearGradient id="GradientFill_168-2" x1="34.61" y1="37.63" x2="66.07" y2="31.99" xlink:href="#GradientFill_168"/><linearGradient id="GradientFill_169" x1="73.27" y1="56.78" x2="54.59" y2="32.78" gradientUnits="userSpaceOnUse"><stop offset="0" stop-color="#afca05"/><stop offset="1" stop-color="#ffed00"/></linearGradient><linearGradient id="GradientFill_170" x1="108.47" y1="9.65" x2="104.05" y2="21.38" gradientUnits="userSpaceOnUse"><stop offset="0" stop-color="#e6340d"/><stop offset="1" stop-color="#e5007d"/></linearGradient><linearGradient id="GradientFill_100" x1="85.2" y1="41.96" x2="99.73" y2="51.5" gradientUnits="userSpaceOnUse"><stop offset="0" stop-color="#2f2483"/><stop offset="1" stop-color="#009ee3"/></linearGradient><linearGradient id="GradientFill_171" x1="79.93" y1="26.22" x2="83.44" y2="31.73" gradientUnits="userSpaceOnUse"><stop offset="0" stop-color="#62c3d0"/><stop offset="1" stop-color="#008bd2"/></linearGradient><clipPath id="clip-path"><path class="cls-1" d="M98.43,17.67h0A10.41,10.41,0,0,1,95.18,32L69.78,47.88,58.67,30.28l25.4-15.85A10.46,10.46,0,0,1,98.43,17.67Z"/></clipPath><linearGradient id="GradientFill_143" x1="81.98" y1="48.46" x2="69.16" y2="60.55" gradientUnits="userSpaceOnUse"><stop offset="0" stop-color="#ffed00"/><stop offset="1" stop-color="#ef7c00"/></linearGradient><linearGradient id="GradientFill_78-2" x1="88.66" y1="40.04" x2="92.92" y2="46.25" xlink:href="#GradientFill_78"/></defs><title>Ресурс 2spaceman</title><g id="Слой_2" data-name="Слой 2"><g id="Layer_1" data-name="Layer 1"><path class="cls-2" d="M17.87,111.19a1.55,1.55,0,1,0-1.55-1.55A1.55,1.55,0,0,0,17.87,111.19Z"/><path class="cls-3" d="M51.07,31.44c-4.67.36-6.16,1.07-9-3.87h0c-1.18-2.05,1.83-4.62,4.18-4.67l7.25-.16c2.63-.06,3,1.82,3.93,3.69L60,28.77l-3.28,7.29C54.46,33.48,54.3,32.34,51.07,31.44Z"/><polygon class="cls-4" points="72.11 38.67 59.24 26.68 52.18 33.01 69.65 52.93 94.19 48.6 90.52 36.34 72.11 38.67"/><path class="cls-5" d="M53.13,28.63a3.78,3.78,0,0,0,3.69-3.27,2.89,2.89,0,0,0-3.09-3.13h0l-.6,6.4Zm-8.42.23a2.89,2.89,0,0,1-3.1-3.06l0,0,0,0h0a3.78,3.78,0,0,1,3.69-3.26h0l6.78-.13-.59,6.39-6.78.13Z"/><polygon class="cls-6" points="61.5 34.07 68.3 45.69 28.73 83.79 31.58 67.28 0 77.88 24.71 56.02 8.91 49.93 61.5 34.07"/><polygon class="cls-7" points="62.77 36.26 67.02 43.5 42.34 67.27 44.12 56.97 24.41 63.58 39.83 49.95 29.97 46.15 62.77 36.26"/><polygon class="cls-8" points="63.63 37.71 66.17 42.05 51.38 56.29 52.45 50.12 40.64 54.08 49.88 45.91 43.97 43.64 63.63 37.71"/><path class="cls-9" d="M76.9,26.49c.6.07.9,1.83.66,4s-.91,3.77-1.51,3.71-.9-1.84-.67-3.95S76.3,26.42,76.9,26.49Z"/><path class="cls-10" d="M79.32,28.69l-2.92,0c-.6-.58-1.55-.66-2.32-1l-2.92-1.5a.6.6,0,0,0-.77.18h0a.48.48,0,0,0,.22.68l1.88,1c1,1-5-.69-5.13.4h0a.51.51,0,0,0,.47.55c.36.05,3.62.27,3.51.6s-3.53.12-4,.11a.5.5,0,0,0-.54.46h0c0,.27.25.43.54.5.6.13,3.86,0,3.92.21s-2.8.48-3.13.51a.49.49,0,0,0-.46.54h0a.55.55,0,0,0,.61.42c.34,0,3.73-.4,3.79-.34.29.28-2.1.81-2.3.86a.46.46,0,0,0-.33.59h0a.56.56,0,0,0,.67.32l3-.81c.24-.07.93-.13,1.26-.19,1.34-.21,2-.48,2.32-.94l2.65,0Z"/><path class="cls-11" d="M101,28.16c-11.57-5.09-16.83-5-24.14-1.67.6.07.9,1.83.66,4s-.87,3.68-1.46,3.71c8.44.21,17.05,1.45,25.39-.95C102.89,32.84,103.06,29.24,101,28.16Z"/><path class="cls-12" d="M43.43,42.27c-4.67.36-6.16,1.07-9-3.87h0c-1.18-2,1.82-4.62,4.18-4.67l7.25-.16c2.62-.06,3,1.82,3.93,3.69l2.54,2.34L49,46.89C46.82,44.31,46.66,43.17,43.43,42.27Z"/><path class="cls-13" d="M45.49,39.46a3.8,3.8,0,0,0,3.69-3.26,2.89,2.89,0,0,0-3.09-3.14h0l-.6,6.4Zm-8.42.24A2.9,2.9,0,0,1,34,36.63l0,0,0,0h0a3.78,3.78,0,0,1,3.69-3.26h0l6.78-.13-.6,6.39-6.78.14h0Z"/><path class="cls-14" d="M84.47,46.83l-19.57,4c-6.78-6.74-7.12-7.33-13.13-13.64l-7.21,6.14L55.14,57.56c3.8,5.13,3.06,5.86,11.47,6.42L77.9,62.76l8.54-3.11Z"/><path class="cls-15" d="M112.55,18.15c5.26,0,7.26,6.29,7.37,10.19,0,.51-2.18,1-5,.16.77,3.51,4.94,2.13,4.9,2.5-.36,3.53-3,5.46-6.33,6l-7.93-3.19c-.77-1.58.49.58-1.21-5.47S107.29,18.16,112.55,18.15Z"/><path class="cls-16" d="M117.3,20.56l5.34,4.16a.64.64,0,0,1-.24,1.17l-2,.65s0,0,0-.1a.56.56,0,0,0-.61-.28.55.55,0,0,0-.32.59c0,.13,0,.06,0,.09l-.13.05a1,1,0,0,1-.63-1.91Z"/><path class="cls-17" d="M116,19.28c-14.59-1.11-.34,9-11.22,10.62a14.85,14.85,0,0,1-9.86-11.18C93.29,10.2,107.47,7.62,105.43,0c10.73,3.71,4.51,10.51,6.87,11.34a7.7,7.7,0,0,1,4,3.6A5,5,0,0,1,116,19.28Z"/><path class="cls-18" d="M102.2,26.59l12.22,10.25L110,38.26c-4.07,11.32-11.74,20.09-32.12,24.51-7.74.63-9-23.34-6.64-26.9,4.93-9.87,25.52-7.16,28.19-8.32Z"/><path class="cls-19" d="M115,22.09a1.31,1.31,0,1,0-2.26,1.31"/><path class="cls-9" d="M75.88,49.62c.66-.39,2.29,1.19,3.63,3.52s1.91,4.53,1.24,4.91-2.29-1.19-3.64-3.52S75.21,50,75.88,49.62Z"/><path class="cls-20" d="M78,40.67c12.4,9.86,28.44,2.44,29.16-3.35.61-4.87-11.41-9.58-14.05-9.59"/><path class="cls-21" d="M98.43,17.67h0A10.41,10.41,0,0,1,95.18,32L69.78,47.88,58.67,30.28l25.4-15.85A10.46,10.46,0,0,1,98.43,17.67Z"/><g class="cls-22"><path class="cls-23" d="M94.1,2.21A11.37,11.37,0,1,1,79.57,9.1,11.37,11.37,0,0,1,94.1,2.21Z"/></g><path class="cls-24" d="M80,50.05l-2.93,2.23c-1-.14-2.08.5-3.15.67l-4.11.67a.74.74,0,0,0-.64.75h0a.6.6,0,0,0,.74.53l2.63-.42c1.71.3-5.58,3-4.92,4.26h0a.65.65,0,0,0,.89.2c.4-.22,3.89-2.43,4-2S69,59.69,68.57,60a.63.63,0,0,0-.2.88h0c.19.27.57.25.92.1.7-.32,3.89-2.93,4.15-2.73s-2.49,2.59-2.8,2.87a.61.61,0,0,0-.07.89h0a.71.71,0,0,0,.94,0c.31-.28,3.5-3.2,3.6-3.19.5.08-1.53,2.4-1.69,2.61a.57.57,0,0,0,.1.85h0a.71.71,0,0,0,.92-.19L76.88,59c.2-.25.86-.83,1.16-1.13,1.19-1.23,1.67-2,1.64-2.7l2.66-2Z"/><path class="cls-25" d="M101.7,33.22c-15.59,3.49-20.87,7.54-25.82,16.4.66-.39,2.29,1.19,3.63,3.52s1.87,4.4,1.3,4.88c8.75-6.12,18.45-11.31,25.13-20C107.09,36.59,104.57,32.79,101.7,33.22Z"/></g></g></svg>