<svg xmlns="http://www.w3.org/2000/svg" xmlns:xlink="http://www.w3.org/1999/xlink" viewBox="0 0 60.38 68.56"><defs><style>.cls-1{fill:#a0d8f7;opacity:0.5;}.cls-1,.cls-10,.cls-11,.cls-12,.cls-13,.cls-14,.cls-15,.cls-2,.cls-3,.cls-4,.cls-5,.cls-7,.cls-8,.cls-9{fill-rule:evenodd;}.cls-15,.cls-2,.cls-4,.cls-6{fill:none;}.cls-2{stroke:#00953f;stroke-width:1.98px;}.cls-2,.cls-6{stroke-miterlimit:22.93;}.cls-3{fill:#ffcb00;}.cls-4,.cls-6{stroke:#1a1a18;stroke-width:0.99px;}.cls-15,.cls-4{stroke-linecap:round;stroke-linejoin:round;}.cls-5{fill:#ac4481;}.cls-7{fill:#2f2482;}.cls-8{fill:#008ad1;}.cls-9{fill:#009de2;}.cls-10{fill:#e4007d;}.cls-11{fill:#ffec00;}.cls-12{fill:#6e3f81;}.cls-13{fill:#1a1a18;}.cls-14{fill:url(#GradientFill_4);}.cls-15{stroke:#ee7c00;stroke-width:0.43px;}</style><linearGradient id="GradientFill_4" x1="-22.6" y1="8.17" x2="-27.13" y2="14.38" gradientTransform="matrix(-1.01, 0, 0, 1, 1.79, 0)" gradientUnits="userSpaceOnUse"><stop offset="0" stop-color="#ffcb00"/><stop offset="1" stop-color="#e2000f"/></linearGradient></defs><title>Ресурс 13bike_lady</title><g id="Слой_2" data-name="Слой 2"><g id="Слой_1-2" data-name="Слой 1"><path class="cls-1" d="M11.36,46.14A10.72,10.72,0,1,1,1,57.3,10.76,10.76,0,0,1,11.36,46.14Z"/><path class="cls-2" d="M11.36,46.14A10.72,10.72,0,1,1,1,57.3,10.76,10.76,0,0,1,11.36,46.14Z"/><path class="cls-1" d="M48.13,45.84A10.72,10.72,0,1,1,37.77,57,10.78,10.78,0,0,1,48.13,45.84Z"/><path class="cls-2" d="M48.13,45.84A10.72,10.72,0,1,1,37.77,57,10.78,10.78,0,0,1,48.13,45.84Z"/><path class="cls-3" d="M25.7,42.47l4.36,1.88c-5.75,5.26-2.74,3.74-6.36,9.72l1.86.76c3.11-3.73,7.09-6.48,8.26-10.19.41-1.29.85-1.83,0-2.78l-4.32-4.58Z"/><polyline class="cls-4" points="43.26 41.44 27.61 58.7 11.81 56.85"/><polygon class="cls-5" points="23.66 53.22 25.85 54.28 29.09 59.25 27.45 60.24 20.96 55.41 23.66 53.22"/><polyline class="cls-4" points="11.81 56.85 24.69 46.55 42.56 39.44 48.58 56.55"/><line class="cls-6" x1="27.61" y1="58.7" x2="21.58" y2="40.8"/><path class="cls-7" d="M16.45,39.56l6.68-.28a1,1,0,0,1,1.07,1h0a1,1,0,0,1-1,1.05l-6.67.28a1,1,0,0,1-1.07-1h0A1,1,0,0,1,16.45,39.56Z"/><path class="cls-8" d="M11.7,54.24A2.61,2.61,0,1,1,9.17,57,2.63,2.63,0,0,1,11.7,54.24Z"/><path class="cls-8" d="M48.23,53.72a2.62,2.62,0,1,1-2.53,2.72A2.63,2.63,0,0,1,48.23,53.72Z"/><path class="cls-9" d="M26.83,54.83a3.25,3.25,0,1,1-3.14,3.38A3.26,3.26,0,0,1,26.83,54.83Z"/><path class="cls-3" d="M33.52,12.33A3.5,3.5,0,0,1,36.93,14a5.57,5.57,0,0,1,.3,2.09,4,4,0,0,1-3.62,4.31,3.93,3.93,0,0,1-3.88-4A3.93,3.93,0,0,1,33.52,12.33Z"/><path class="cls-10" d="M30.07,17.92c-5.22-.17-8.2,5.22-12.61,9.38C6.87,34.24,5.3,36.34,3.55,38.36c.07,1.13.94,3,3,2.54C13,39.43,11.13,42.27,14,43c2.12.54,3.12-1,5.37-.65,1.23.21,3,1,4,.3L28.29,38l.9,1,1.09-1.06-4-3.86,1.85-3.8,4.68-1.64a10.11,10.11,0,0,0,1.45-7.87C32.53,19.85,33,20.49,30.07,17.92Z"/><path class="cls-11" d="M23.4,42.67l5.38,2.25c-1.9,3.83-1.47,4.72-1.3,9l-.39,1.69,2.21-.09c1.16-3.71,2.07-6.6,3.24-10.31.41-1.29.85-1.83,0-2.78l-4.32-4.58Z"/><path class="cls-12" d="M26.86,55.62l2.44-.1c.37.2,8.63,2.28,5.24,4.64l-9-1.35Z"/><polygon class="cls-3" points="43.12 33.8 44.23 34.58 45.6 34.26 46.33 34.48 48.83 33.72 48.24 33.19 45.39 33.2 44.56 32.77 43.12 33.8"/><path class="cls-3" d="M23.41,15.1a29.41,29.41,0,0,0,3.3,2.29c5.58,5.06-2.75,9.68-3.73,2.4l-2.92-3.14-1.78-1.91-3.67-8.8,1.6-.46c1.15,2.67,3.57,5.67,4.76,8A19.57,19.57,0,0,0,23.41,15.1Z"/><path class="cls-3" d="M36.65,22.89l-2.4-2.19a10,10,0,0,1-.13,4.8l3,3.28,6,5,1.44-1L40.1,27.12Z"/><path class="cls-13" d="M35.94,15.57a.45.45,0,1,1,0,.9.45.45,0,1,1,0-.9Z"/><polyline class="cls-4" points="42.56 39.44 41.38 35.99 50.39 33.24"/><path class="cls-13" d="M33.26,15.12a.45.45,0,1,1-.44.47A.46.46,0,0,1,33.26,15.12Z"/><path class="cls-14" d="M32.41,8.82C35.1,9.44,36.26,12,37,14.08c-2.38.57-4.69-3.25-7,3.52-2.42.38-5.8-1.17-7.92-2.11s-4.62-4.92-2.78-4.79c5.67.41,2.25-3.55,5.67-2,1.49.67,1.93-1.78,3.77-.7C30,8.74,31.39,8.58,32.41,8.82Z"/><path class="cls-15" d="M33.58,18.19a.72.72,0,0,0,.65.41.67.67,0,0,0,.43-.14"/><path class="cls-3" d="M13.54,5.29c.12.21.24.39.34.54a1.38,1.38,0,0,0,.9.54l.2.47a6.67,6.67,0,0,0,.72-.15,7,7,0,0,0,.88-.32l0,0,0-.07-.23-.47c.57-.5.09-.69.22-1.88l.16-1.39.09-.73a.4.4,0,0,0-.29-.43.31.31,0,0,0-.37.29l-.1.84L16,3c-.13.28-.26,0-.41-.53C15.34,1.56,15-.1,14.57,0a.34.34,0,0,0-.22.42,17.75,17.75,0,0,1,.49,2.11c0,.1,0,.17-.05.17s-.07-.06-.13-.16A22.6,22.6,0,0,1,13.8.3a.32.32,0,0,0-.41-.22c-.16.06-.2.25-.18.44S13.77,2,14,2.62c.05.19.08.32,0,.34s-.15-.09-.28-.3C13.42,2.19,13,1.3,13,1.17A.32.32,0,0,0,12.52,1a.36.36,0,0,0-.12.47c0,.11.38.76.67,1.33s.43.88.42.9-.49-.38-.78-.78l-.29-.42A.3.3,0,0,0,12,2.44a.37.37,0,0,0,0,.48l.2.27,1,1.37C13.23,4.7,13.43,5.1,13.54,5.29Z"/></g></g></svg>