<svg xmlns="http://www.w3.org/2000/svg" xmlns:xlink="http://www.w3.org/1999/xlink" viewBox="0 0 71.8 140.41"><defs><style>.cls-1,.cls-4{fill:#1a1a18;}.cls-1{stroke:#1a1a18;stroke-miterlimit:22.93;stroke-width:0.44px;}.cls-10,.cls-2,.cls-3,.cls-4,.cls-5,.cls-6,.cls-7,.cls-9{fill-rule:evenodd;}.cls-2{fill:url(#GradientFill_141);}.cls-3{fill:#e30045;}.cls-5{fill:#e4007d;}.cls-6{fill:#ffec00;}.cls-8{fill:#000003;}.cls-9{fill:#fff;}.cls-10{fill:#009de2;}</style><linearGradient id="GradientFill_141" x1="25.71" y1="33.97" x2="27.41" y2="24.03" gradientUnits="userSpaceOnUse"><stop offset="0" stop-color="#e4007d"/><stop offset="1" stop-color="#e30045"/></linearGradient></defs><title>Ресурс 11lady</title><g id="Слой_2" data-name="Слой 2"><g id="Слой_1-2" data-name="Слой 1"><rect class="cls-1" x="15.74" y="8.38" width="17.84" height="23.22"/><polygon class="cls-2" points="22.79 21.01 28.36 20.32 29.19 26.23 31.17 26.55 33.58 26.82 33.31 42.15 19.76 39.7 17.87 27.09 19.84 26.75 22.79 26.49 22.79 21.01"/><path class="cls-3" d="M15.65,27.22l-3.72.92L7.08,33.75v9.32l9.11-7.55-.54-8.3ZM11.27,56.58.67,44.13,0,41.52l7.08-7.77v9.32l-.48.83.48,1,5.83,9.13Z"/><polygon class="cls-3" points="37.06 27.33 40.39 28.11 44.09 52.16 58.69 40.62 68.88 39.93 68.78 40.27 66.04 41.94 62.63 42.61 60.37 41.9 46.09 59.32 43.13 60.98 41.66 60.7 40.32 58.81 35.96 37.73 37.06 27.33"/><polygon class="cls-4" points="12.68 40.68 15.61 49.97 9.06 61.89 13.04 102 13.11 127.73 12.68 140.41 52.42 139.5 35.88 107.41 37.83 59.76 32.96 50.91 36.56 36.44 37.06 27.33 33.09 26.75 30.66 26.47 29.36 36.33 26.18 40.86 22.88 36.32 21.32 26.62 15.08 27.22 14.84 35.03 12.68 40.68"/><path class="cls-5" d="M16.16,7.1H32.07l-1.38,10c-1.29,2.65-3.56,4.54-6.31,6.28-.86.54-4,1.16-4.71-.64l-3-7.21Z"/><path class="cls-6" d="M23.06,9.66l-2.85,5.18a.66.66,0,0,0,.53,1l1.69.1s0,0,0-.1.16-.43.38-.42a.59.59,0,0,1,.42.47c0,.14,0,.07,0,.1h.11c.76,0,1.08-1.57-.08-1.91Z"/><path class="cls-7" d="M20.8,11.75a.81.81,0,1,0-.8-.81A.8.8,0,0,0,20.8,11.75Z"/><path class="cls-7" d="M27.87,11.75a.81.81,0,1,0-.8-.81A.8.8,0,0,0,27.87,11.75Z"/><rect class="cls-8" x="17.93" y="10.11" width="4.13" height="0.59" rx="0.29" ry="0.29"/><rect class="cls-8" x="24.94" y="10.11" width="4.13" height="0.59" rx="0.29" ry="0.29"/><path class="cls-9" d="M22.65,17.29c-.06,0-.73.8-1.08.72-.52-.12-.49-.58-.67-.59-1-.07-1.23,1.45-1.23,2a3.71,3.71,0,0,0,5.67.07C25.34,18.82,23.53,17.52,22.65,17.29Z"/><path class="cls-4" d="M24.66,8.38H15.74A8.66,8.66,0,0,1,24.66,0a8.67,8.67,0,0,1,8.92,8.38Z"/><path class="cls-3" d="M11.21,56.26l1.7-2.19,1.75,1.64c-.91,1.95-1.44,4.89-3.38,5.35l-.58-1.61Z"/><path class="cls-6" d="M15.21,53.71c5.7,7-1.06,20.36-4.51,8.24Z"/><path class="cls-10" d="M60.05,36.07a3.57,3.57,0,0,0,.32,1.5,1.06,1.06,0,0,1-.31,0,.86.86,0,0,1-.6-.25.85.85,0,0,1,0-1.22.88.88,0,0,1,.59-.25v.17Zm-4.74,3.65,3.6.9h9.17l3.72-.94v-.19H65.08a3.69,3.69,0,0,0,2.31-3.42V34.45H60.05v.74a1.57,1.57,0,0,0-1.56,1.57,1.57,1.57,0,0,0,1.57,1.57,1.59,1.59,0,0,0,.66-.14,3.71,3.71,0,0,0,1.65,1.3h-7Z"/></g></g></svg>