<svg xmlns="http://www.w3.org/2000/svg" xmlns:xlink="http://www.w3.org/1999/xlink" viewBox="0 0 182.58 103.53"><defs><style>.cls-1{fill:none;clip-rule:evenodd;}.cls-2{fill:#008ad1;}.cls-10,.cls-11,.cls-12,.cls-13,.cls-14,.cls-15,.cls-16,.cls-17,.cls-18,.cls-2,.cls-3,.cls-4,.cls-5,.cls-7,.cls-8,.cls-9{fill-rule:evenodd;}.cls-3{fill:#30247e;}.cls-4{fill:#009de2;}.cls-5{fill:#59546d;}.cls-6{clip-path:url(#clip-path);}.cls-7{fill:url(#GradientFill_142);}.cls-8{fill:#1a1a18;}.cls-9{fill:#e2000f;}.cls-10{fill:#00953f;}.cls-11{fill:#e30045;}.cls-12{fill:url(#GradientFill_143);}.cls-13{fill:url(#GradientFill_144);}.cls-14{fill:#2f2482;}.cls-15{fill:#ffcb00;}.cls-16{fill:url(#GradientFill_145);}.cls-17{fill:url(#GradientFill_143-2);}.cls-18{fill:#e4007d;}</style><clipPath id="clip-path"><path class="cls-1" d="M6.6,10.52l28-7.88a2.83,2.83,0,0,1,3.67,2.54l2.25,21.56a4.26,4.26,0,0,1-2.94,4.4L9.58,39a2.82,2.82,0,0,1-3.67-2.53L3.66,14.91A4.25,4.25,0,0,1,6.6,10.52Z"/></clipPath><linearGradient id="GradientFill_142" x1="21.57" y1="42.08" x2="21.39" y2="8.15" gradientUnits="userSpaceOnUse"><stop offset="0" stop-color="#fff"/><stop offset="1" stop-color="#ee7c00"/></linearGradient><linearGradient id="GradientFill_143" x1="168.01" y1="42.59" x2="171.64" y2="52.04" gradientUnits="userSpaceOnUse"><stop offset="0" stop-color="#ffec00"/><stop offset="1" stop-color="#ee7c00"/></linearGradient><linearGradient id="GradientFill_144" x1="125.84" y1="72.54" x2="128.44" y2="90.19" gradientUnits="userSpaceOnUse"><stop offset="0" stop-color="#e30045"/><stop offset="1" stop-color="#ac4481"/></linearGradient><linearGradient id="GradientFill_145" x1="120.97" y1="77.05" x2="118.09" y2="88.25" gradientUnits="userSpaceOnUse"><stop offset="0" stop-color="#e9506c"/><stop offset="1" stop-color="#e4007d"/></linearGradient><linearGradient id="GradientFill_143-2" x1="163.7" y1="59.21" x2="169.34" y2="71.53" xlink:href="#GradientFill_143"/></defs><title>Ресурс 6programmer</title><g id="Слой_2" data-name="Слой 2"><g id="Слой_1-2" data-name="Слой 1"><path class="cls-2" d="M3.46,8.77,34.18.14C36.3-.45,40,.9,40.26,3L40.74,7l.12,19.73a5.36,5.36,0,0,1-3.44,5L25.24,36.41,8.66,41.07c-4.31,1.21-6-1.44-6.21-3.58L0,13.74A4.88,4.88,0,0,1,3.46,8.77Z"/><path class="cls-3" d="M67.24,44.67,36.76,53.24c-5.75,1.62-4,1.5-9.63-.26C20.23,50.83,9.4,47.55,7.7,47c-2-.65-1.48-4.9-.31-5.13l32-6.2c3.3-.64,4.12-1,7.34,0,5.78,1.8,17.9,2.45,19.81,2.92C69.9,39.4,69.41,44.06,67.24,44.67Z"/><path class="cls-3" d="M4.7,9.25,36.18.41a3.17,3.17,0,0,1,4.11,2.85l2.54,24.21a4.79,4.79,0,0,1-3.31,4.93L8,41.25A3.18,3.18,0,0,1,3.92,38.4L1.39,14.19A4.81,4.81,0,0,1,4.7,9.25Z"/><path class="cls-4" d="M67.24,41.46,36.76,50c-5.75,1.62-4,1.5-9.63-.26-6.9-2.15-17.73-5.43-19.43-6-2-.65-.59-2.26.48-2.56l31.21-8.77c3.26-.92,4.12-1,7.34,0,5.78,1.8,17.91,5.63,19.81,6.13S69.41,40.85,67.24,41.46Z"/><path class="cls-5" d="M6.6,10.52l28-7.88a2.83,2.83,0,0,1,3.67,2.54l2.25,21.56a4.26,4.26,0,0,1-2.94,4.4L9.58,39a2.82,2.82,0,0,1-3.67-2.53L3.66,14.91A4.25,4.25,0,0,1,6.6,10.52Z"/><g class="cls-6"><path class="cls-7" d="M6.34,11.45,33.8,3.68A2.69,2.69,0,0,1,37.34,6l2.1,20.1a4.06,4.06,0,0,1-2.86,4.13L9.12,38a2.68,2.68,0,0,1-3.54-2.33l-2.1-20.1A4,4,0,0,1,6.34,11.45Z"/></g><path class="cls-8" d="M17.38,40.78c.58-.05,1.06.2,1.06.55S18,42,17.38,42s-1.06-.19-1.06-.54S16.79,40.83,17.38,40.78Z"/><path class="cls-8" d="M21.29,39.52c.58,0,1.06.2,1.06.55s-.48.67-1.06.72-1.06-.2-1.06-.55S20.71,39.57,21.29,39.52Z"/><path class="cls-8" d="M25.41,38.21c.58-.05,1.06.2,1.06.54s-.48.67-1.06.72-1.06-.2-1.06-.55S24.83,38.25,25.41,38.21Z"/><path class="cls-8" d="M29.32,37c.58-.05,1.06.2,1.06.55s-.48.67-1.06.71-1.06-.2-1.06-.55S28.74,37,29.32,37Z"/><path class="cls-8" d="M33.22,35.77c.58-.05,1.05.2,1.05.55s-.47.67-1.05.71-1.06-.2-1.06-.55S32.63,35.81,33.22,35.77Z"/><path class="cls-8" d="M37.13,34.51c.58,0,1,.2,1,.55s-.47.67-1,.71-1.06-.2-1.06-.54S36.54,34.56,37.13,34.51Z"/><path class="cls-8" d="M41,33.25c.58,0,1.06.2,1.06.55s-.48.67-1.06.72S40,34.32,40,34,40.45,33.3,41,33.25Z"/><path class="cls-8" d="M21.13,42.44c.58,0,1.06.2,1.06.55s-.48.67-1.06.71-1.06-.2-1.06-.55S20.55,42.48,21.13,42.44Z"/><path class="cls-8" d="M25,41.18c.58,0,1.06.2,1.06.55s-.48.67-1.06.71S24,42.24,24,41.9,24.46,41.23,25,41.18Z"/><path class="cls-8" d="M29.16,39.86c.59,0,1.06.2,1.06.55s-.47.67-1.06.72-1.05-.2-1.05-.55S28.58,39.91,29.16,39.86Z"/><path class="cls-8" d="M33.07,38.61c.59,0,1.06.19,1.06.54s-.47.67-1.06.72-1-.2-1-.55S32.49,38.65,33.07,38.61Z"/><path class="cls-8" d="M37,37.43c.58,0,1.06.2,1.06.55s-.48.66-1.06.71-1.06-.2-1.06-.55S36.39,37.47,37,37.43Z"/><path class="cls-8" d="M40.88,36.17c.58-.05,1.06.2,1.06.55s-.48.67-1.06.71-1.06-.2-1.06-.55S40.3,36.21,40.88,36.17Z"/><path class="cls-8" d="M44.79,34.91c.58,0,1.06.2,1.06.55s-.48.67-1.06.71-1.06-.2-1.06-.55S44.21,35,44.79,34.91Z"/><path class="cls-8" d="M25.3,44c.58-.05,1.06.2,1.06.55s-.48.67-1.06.71-1.06-.2-1.06-.55S24.71,44,25.3,44Z"/><path class="cls-8" d="M29.21,42.73c.58,0,1.06.2,1.06.55s-.48.67-1.06.71-1.06-.2-1.06-.55S28.62,42.77,29.21,42.73Z"/><path class="cls-8" d="M33.33,41.41c.58,0,1.06.2,1.06.55s-.48.67-1.06.72-1.06-.2-1.06-.55S32.75,41.46,33.33,41.41Z"/><path class="cls-8" d="M37.24,40.15c.58,0,1.06.2,1.06.55s-.48.67-1.06.72-1.06-.2-1.06-.55S36.66,40.2,37.24,40.15Z"/><path class="cls-8" d="M41.14,39c.58,0,1,.19,1,.54s-.47.67-1,.72-1.06-.2-1.06-.55S40.55,39,41.14,39Z"/><path class="cls-8" d="M45.05,37.72c.58,0,1.05.2,1.05.54s-.47.67-1.05.72S44,38.78,44,38.43,44.46,37.76,45.05,37.72Z"/><path class="cls-8" d="M49,36.46c.58-.05,1.06.2,1.06.55s-.48.67-1.06.71-1.06-.2-1.06-.55S48.37,36.5,49,36.46Z"/><path class="cls-8" d="M31.43,45c.58,0,1,.2,1,.55s-.47.67-1,.72-1.06-.2-1.06-.55S30.84,45.07,31.43,45Z"/><path class="cls-8" d="M35.34,43.76c.58,0,1,.2,1,.55s-.47.67-1,.72-1.06-.2-1.06-.55S34.75,43.81,35.34,43.76Z"/><path class="cls-8" d="M39.46,42.45c.58-.05,1.06.2,1.06.55s-.48.67-1.06.71-1.06-.2-1.06-.54S38.88,42.5,39.46,42.45Z"/><path class="cls-8" d="M43.37,41.19c.58,0,1.06.2,1.06.55s-.48.67-1.06.72-1.06-.2-1.06-.55S42.79,41.24,43.37,41.19Z"/><path class="cls-8" d="M47.27,40c.58,0,1,.2,1,.55s-.47.67-1,.72-1.06-.2-1.06-.55S46.68,40.06,47.27,40Z"/><path class="cls-8" d="M51.18,38.75c.58,0,1,.2,1,.55s-.47.67-1,.72-1.06-.2-1.06-.55S50.59,38.8,51.18,38.75Z"/><path class="cls-8" d="M55.09,37.49c.58,0,1,.2,1,.55s-.47.67-1,.72S54,38.56,54,38.21,54.5,37.54,55.09,37.49Z"/><path class="cls-8" d="M58.11,42.4,39.7,47.77c-1.8.53-3.39-1-1.63-1.5l18.4-5.37C58.28,40.37,59.87,41.89,58.11,42.4Z"/><polygon class="cls-9" points="6.32 14.21 10.74 12.94 13.53 33.47 9.01 34.79 6.32 14.21"/><polygon class="cls-4" points="11.39 17.75 15.82 16.48 18.04 32.15 13.53 33.47 11.39 17.75"/><polygon class="cls-10" points="17.41 27.8 34.12 22.92 34.84 27.22 18.04 32.15 17.41 27.8"/><polygon class="cls-9" points="28.8 17.31 33.23 16.04 34.84 27.22 30.33 28.54 28.8 17.31"/><polygon class="cls-9" points="21.34 23.27 25.76 22 26.85 29.56 22.34 30.89 21.34 23.27"/><polygon class="cls-9" points="27.86 10.8 32.28 9.53 32.83 13.31 28.32 14.63 27.86 10.8"/><path class="cls-11" d="M55.27,22.18,51.46,28c-.36.6.11,1.15.75,1.21l2.34.23s0,0,0-.11a.5.5,0,0,1,.51-.46.79.79,0,0,1,.59.57c0,.16,0,.07,0,.11l.15,0c1,.1,1.45-1.76-.15-2.22Z"/><path class="cls-12" d="M160,36.34l19.28,6.19c6.75,2.17,2.53,13.8-6.17,10.58L156.49,47Z"/><path class="cls-13" d="M114.88,57.61c1.91.22,9.56,3,14.44,10L144,71.84l12-25.07,15.55,5.89-17.89,38.4c-3.47,6.13-5.91,4.31-11.5,2.32-.69-.24-65-26.91-65.75-27.14L90.67,53.52l21.47,3Z"/><path class="cls-14" d="M68.26,39.16l4.4-7.63c.9-1.57,1.59-2.85,2.66-2.93,6.05-.42,8.17,4,7.24,9.79l-5.11,6.06c-1.88,2.23-4.63,3.25-7.24,1.95h0A5.32,5.32,0,0,1,68.26,39.16Z"/><path class="cls-15" d="M62.77,34.68a9.78,9.78,0,1,0-9.71-9.78A9.76,9.76,0,0,0,62.77,34.68Z"/><path class="cls-14" d="M59.29,30l14.56-1.39c12.9-1.24,4.06,15.09,15.38,18.22,2.68.74,26.26,7.1,26.23,10.87l-1.17-.26c-15-3.53-35.13.25-38,16.5-22-14.78-21.88-18.33-29.89-35.27C42.87,31.17,51.81,30.75,59.29,30Z"/><polygon class="cls-14" points="40.91 50.24 45.76 34.65 56.9 38.72 53.25 55.17 40.91 50.24"/><path class="cls-16" d="M96,57c-9.59,1.77-17.88,7-19.62,17L88.74,84l43.88,18.58c2,.87,7.53,2.14,9.9-1.56L167.75,72.1l-15.1-9.31L134.51,84,122,75.65l-6.36-5.5C113.93,60.49,103.93,56.26,96,57Z"/><path class="cls-17" d="M159.21,53.07l17.8,11c6,3.72-.27,14.25-8.06,9.22l-15.42-10Z"/><path class="cls-15" d="M68.15,68.23c-2.62-1.94-4.78-3.68-6.6-5.33l-11.21,1,2.15-9L41.78,50.59c-3.21,12-5.42,21.76-1.15,22.41C47,74,55,71.16,68.15,68.23Z"/><path class="cls-18" d="M50.35,18.72a5.29,5.29,0,0,0,4-1C64.19,11.47,74,14.87,73.85,28.78l-12,1C61.73,22.91,48.8,26.06,50.35,18.72Z"/></g></g></svg>