<svg xmlns="http://www.w3.org/2000/svg" xmlns:xlink="http://www.w3.org/1999/xlink" viewBox="0 0 73.11 150.73"><defs><style>.cls-1,.cls-10{fill:#ee7c00;}.cls-1,.cls-11,.cls-12,.cls-16,.cls-17,.cls-18,.cls-19,.cls-2,.cls-3,.cls-4,.cls-5,.cls-6,.cls-7{fill-rule:evenodd;}.cls-2{fill:url(#GradientFill_149);}.cls-3{fill:#1b0e44;}.cls-4{fill:#ffcb00;}.cls-5{fill:#3b3a39;}.cls-6{fill:url(#GradientFill_32);}.cls-7{fill:#e2000f;}.cls-8{fill:#5da072;}.cls-9{fill:#00531c;}.cls-11{fill:url(#GradientFill_143);}.cls-12{fill:url(#GradientFill_143-2);}.cls-13{fill:#a55e7f;}.cls-14,.cls-16{fill:#fff;}.cls-14,.cls-15,.cls-16{opacity:0.5;}.cls-15{fill:#009de2;}.cls-17{fill:#ac4481;}.cls-18{fill:url(#GradientFill_108);}.cls-19{fill:#a0d8f7;opacity:0.8;}</style><linearGradient id="GradientFill_149" x1="31.41" y1="105.87" x2="38.66" y2="105.12" gradientUnits="userSpaceOnUse"><stop offset="0" stop-color="#203b65"/><stop offset="1" stop-color="#003b74"/></linearGradient><linearGradient id="GradientFill_32" x1="23.08" y1="81.48" x2="23.48" y2="62.59" gradientUnits="userSpaceOnUse"><stop offset="0" stop-color="#002828"/><stop offset="1" stop-color="#00531c"/></linearGradient><linearGradient id="GradientFill_143" x1="7.18" y1="22.57" x2="14.78" y2="83.17" gradientUnits="userSpaceOnUse"><stop offset="0" stop-color="#ffec00"/><stop offset="1" stop-color="#ee7c00"/></linearGradient><linearGradient id="GradientFill_143-2" x1="53.02" y1="52.84" x2="58.83" y2="56.5" xlink:href="#GradientFill_143"/><linearGradient id="GradientFill_108" x1="35.62" y1="11.82" x2="26.74" y2="28.02" gradientUnits="userSpaceOnUse"><stop offset="0" stop-color="#ee7c00"/><stop offset="1" stop-color="#e2000f"/></linearGradient></defs><title>Ресурс 15letov</title><g id="Слой_2" data-name="Слой 2"><g id="Слой_1-2" data-name="Слой 1"><path class="cls-1" d="M30.66,139.78h9.57v2.36h5.38a5.56,5.56,0,0,1,5.54,5.54h0c0,3-2.5,3-5.54,3H30.66Z"/><polygon class="cls-2" points="7.52 64.88 40.57 65.24 48.49 105.9 44.62 141.81 30.66 149.39 29.7 140.58 35.58 108.03 24.11 80.2 22.25 106.69 24.47 146.79 9.71 146.95 9.51 106.69 5.58 70.89 7.52 64.88"/><path class="cls-1" d="M50.68,38.44l-8.73,4c1.23,2.72,6.39,17.92,7.84,18.62,0,0,2.68,3.37,3.64,3,2-.69,3.21-3,4.81-4.45l.48-1.53s-2.91-.67-3.3-2.57C54.19,49.49,51.9,40.65,50.68,38.44Z"/><path class="cls-3" d="M14.76,21.09,26,20.58a7,7,0,0,0,12.8,3L46.52,28l7.45,11L41.61,45l-.85-1.21.4,19.35L5.89,67.9l4.26-17.66,4.46-11.93-9.1-3.5Z"/><path class="cls-4" d="M34.49,1.84c4.73,0,7.84,5.84,6.93,13S35.94,27.93,31.2,27.93s-7.84-5.84-6.93-13S29.75,1.84,34.49,1.84Z"/><polygon class="cls-1" points="27.05 17.31 29.38 14.13 30.85 14.68 28.21 18.2 27.05 17.31"/><path class="cls-1" d="M35.93,16.39l-.7,3.53a.07.07,0,0,1-.06,0l-1.35-.27a.08.08,0,0,1,0-.06l.71-3.74s1.18.4,1.4.44C35.92,16.34,35.94,16.36,35.93,16.39Z"/><polygon class="cls-5" points="35.05 10.41 38.07 11.52 37.81 12.27 34.8 11.16 35.05 10.41"/><polygon class="cls-5" points="30.21 8.84 33.23 9.95 32.98 10.7 29.96 9.58 30.21 8.84"/><path class="cls-6" d="M6.36,63.72c5-2.78,14.61-2.19,18.23-2.95,3.39-.71,3.37-4.54,5.81-7,2-2,4.24-4,4.74-1.21,1.47,8.36,3.83,11.92,10.51,16.7,2.32,1.66-.5,2.83-3.14,3.76-3.25,1.15-6.69-.51-8.79,2.24-2.5,3.28-6.21,12.48-11.42,15.37a15.09,15.09,0,0,1-20-6.37C-2.69,75.44,1.35,66.5,6.36,63.72Z"/><path class="cls-7" d="M31.72,63.77,61.85,46.53l-.07-.1A1.25,1.25,0,0,1,62,44.79L68.37,40a1,1,0,0,1,.91-.17,1.33,1.33,0,0,1,.81.63l2.8,4.63a1.3,1.3,0,0,1,.18,1,1,1,0,0,1-.56.73l-7.22,3.41a1.23,1.23,0,0,1-1.55-.56l-.06-.11L34.45,68.27Z"/><rect class="cls-8" x="9.38" y="70.01" width="25.56" height="5.26" transform="translate(-34.44 22) rotate(-31.21)"/><rect class="cls-9" x="10.47" y="76.03" width="1.51" height="6.47" transform="translate(-39.46 17.3) rotate(-31.22)"/><rect class="cls-10" x="6.74" y="60.7" width="68.21" height="0.37" transform="translate(-25.64 29.98) rotate(-31.21)"/><rect class="cls-10" x="6.36" y="60.06" width="68.21" height="0.37" transform="translate(-25.36 29.69) rotate(-31.21)"/><rect class="cls-10" x="7.52" y="61.97" width="68.21" height="0.37" transform="translate(-26.19 30.56) rotate(-31.21)"/><rect class="cls-10" x="7.13" y="61.34" width="68.21" height="0.37" transform="translate(-25.91 30.27) rotate(-31.21)"/><path class="cls-7" d="M62.56,43.34a.82.82,0,1,1-.28,1.14A.83.83,0,0,1,62.56,43.34Z"/><path class="cls-7" d="M64.43,41.93a.81.81,0,0,1,1.13.27.83.83,0,1,1-1.41.86A.82.82,0,0,1,64.43,41.93Z"/><path class="cls-7" d="M66.52,40.35a.81.81,0,0,1,1.13.27.83.83,0,1,1-1.41.86A.82.82,0,0,1,66.52,40.35Z"/><path class="cls-7" d="M66.85,50.42A.83.83,0,0,0,66,49a.83.83,0,1,0,.86,1.41Z"/><path class="cls-7" d="M69,49.42a.84.84,0,0,0,.28-1.14.83.83,0,0,0-1.42.86A.84.84,0,0,0,69,49.42Z"/><path class="cls-7" d="M71.34,48.3a.83.83,0,0,0,.27-1.14A.83.83,0,0,0,70.2,48,.84.84,0,0,0,71.34,48.3Z"/><path class="cls-11" d="M13.67,64.21l1.49,4.16c1.13.57,1.71,1.89,2.65,2.79L21,74.25c1.25,1.2.44,2.55-1,1.21l-1.94-1.87c-1.88-.86,3.43,6.77,1.95,7.53h0a.77.77,0,0,1-1-.4c-.24-.49-2.17-5-2.59-4.72s1.57,5.1,1.8,5.72a.75.75,0,0,1-.39,1h0c-.38.14-.74-.14-1-.52-.48-.79-1.84-5.53-2.23-5.5s.69,4.24.81,4.72a.73.73,0,0,1-.54.92h0a.83.83,0,0,1-.9-.66c-.12-.49-1.27-5.52-1.38-5.58-.55-.26-.13,3.4-.11,3.71a.68.68,0,0,1-.67.77h0a.85.85,0,0,1-.78-.81l-.32-4.67c0-.38-.28-1.4-.37-1.9-.34-2-.4-3,.1-3.66L3,47.7c-1.11-2.24-.78-1.82.21-4l3.09-8.59,8.23,3L11,47.91Z"/><path class="cls-12" d="M59.33,57.29l-.4-.4c.28-1.15.48-3.75-.28-4.18a1.82,1.82,0,0,1-2.13-1c-.55-.87-1.33-3.79-2.37-3.37h0a.72.72,0,0,0-.34,1c.2.47,1,1.87.53,2s-.94-1.14-1.23-1.68a.71.71,0,0,0-1-.33h0a.82.82,0,0,0-.22,1c.27.82,1.07,1.59.81,1.84s-1.33-1.31-1.6-1.68a.69.69,0,0,0-1-.19h0a.79.79,0,0,0-.08,1.05,33.45,33.45,0,0,1,2,2.95l-1.47.05c-.26-.17-.54-1-.6-1.1a.5.5,0,0,0-.83,0h0a.92.92,0,0,0,.1,1L50,55.5l1.53.39c.34.09.81,1,1.12,1.42,1.21,1.47,1.85,2.09,2.64,2.15l1,.68C57.05,60.75,60.52,58.47,59.33,57.29Z"/><path class="cls-1" d="M34.84,8.68l-.09,5.79a.65.65,0,0,1-1,.6l-1.49-.73s0,0,.07-.08a.43.43,0,0,0-.13-.54.57.57,0,0,0-.58.19c-.07.12,0,.06,0,.09l-.1-.05c-.67-.33-.15-1.86,1-1.59l1.4-3.83Z"/><rect class="cls-13" x="31.78" y="15.26" width="0.8" height="3.18" transform="translate(6.01 42.04) rotate(-71.55)"/><rect class="cls-10" x="31.58" y="13" width="1.47" height="5.87" transform="translate(6.97 41.55) rotate(-71.55)"/><path class="cls-1" d="M28.76,16.73l5.59,1.86L33.82,20c-2.23,4.21-7.08,3.45-5.58-1.86Z"/><rect class="cls-14" x="32.57" y="31.62" width="1.33" height="12.08" transform="translate(-10.03 63.16) rotate(-79.08)"/><rect class="cls-14" x="32.07" y="34.24" width="1.33" height="12.08" transform="translate(-13.02 64.79) rotate(-79.08)"/><rect class="cls-14" x="27.17" y="31.54" width="1.33" height="21.03" transform="translate(-18.73 61.41) rotate(-79.08)"/><rect class="cls-14" x="26.66" y="34.16" width="1.33" height="21.03" transform="translate(-21.71 63.04) rotate(-79.08)"/><rect class="cls-14" x="26.16" y="36.78" width="1.33" height="21.03" transform="translate(-24.7 64.67) rotate(-79.08)"/><rect class="cls-15" x="19.84" y="33.18" width="4.86" height="8.32" transform="translate(-18.61 52.13) rotate(-79.08)"/><path class="cls-16" d="M19.69,34.74a.38.38,0,0,1-.14.75.38.38,0,1,1,.14-.75Z"/><path class="cls-16" d="M20.88,35a.38.38,0,0,1,.3.45.38.38,0,1,1-.3-.45Z"/><path class="cls-16" d="M22.07,35.2a.38.38,0,1,1-.45.3A.38.38,0,0,1,22.07,35.2Z"/><path class="cls-16" d="M23.26,35.43a.38.38,0,0,1-.15.75.38.38,0,1,1,.15-.75Z"/><path class="cls-16" d="M24.44,35.66a.38.38,0,1,1-.14.75A.38.38,0,0,1,24,36,.37.37,0,0,1,24.44,35.66Z"/><path class="cls-16" d="M25.63,35.89a.37.37,0,0,1,.3.44.38.38,0,0,1-.44.31.39.39,0,0,1-.31-.45A.38.38,0,0,1,25.63,35.89Z"/><path class="cls-16" d="M19.48,35.84a.38.38,0,0,1,.3.45.38.38,0,1,1-.3-.45Z"/><path class="cls-16" d="M20.67,36.07a.38.38,0,1,1-.45.3A.38.38,0,0,1,20.67,36.07Z"/><path class="cls-16" d="M21.86,36.3a.38.38,0,0,1-.15.75.38.38,0,0,1,.15-.75Z"/><path class="cls-16" d="M23,36.53a.38.38,0,0,1,.31.44.39.39,0,0,1-.45.31.38.38,0,0,1-.3-.45A.37.37,0,0,1,23,36.53Z"/><path class="cls-16" d="M24.23,36.76a.37.37,0,0,1,.3.44.38.38,0,0,1-.44.31.39.39,0,0,1-.31-.45A.38.38,0,0,1,24.23,36.76Z"/><path class="cls-16" d="M25.42,37a.37.37,0,0,1,.3.44.38.38,0,0,1-.44.31.39.39,0,0,1-.31-.45A.38.38,0,0,1,25.42,37Z"/><path class="cls-16" d="M19.27,36.94a.38.38,0,1,1-.45.3A.38.38,0,0,1,19.27,36.94Z"/><path class="cls-16" d="M20.45,37.17a.38.38,0,1,1-.14.75.38.38,0,0,1-.3-.45A.37.37,0,0,1,20.45,37.17Z"/><path class="cls-16" d="M21.64,37.4a.38.38,0,0,1,.31.44.39.39,0,0,1-.45.31.38.38,0,0,1-.3-.45A.37.37,0,0,1,21.64,37.4Z"/><path class="cls-16" d="M22.83,37.63a.37.37,0,0,1,.3.44.38.38,0,0,1-.44.31.39.39,0,0,1-.31-.45A.38.38,0,0,1,22.83,37.63Z"/><path class="cls-16" d="M24,37.86a.37.37,0,0,1,.3.44.38.38,0,1,1-.75-.14A.38.38,0,0,1,24,37.86Z"/><path class="cls-16" d="M25.21,38.09a.38.38,0,1,1-.45.3A.38.38,0,0,1,25.21,38.09Z"/><path class="cls-16" d="M19.05,38a.38.38,0,0,1,.31.44.39.39,0,0,1-.45.31.38.38,0,0,1-.3-.45A.37.37,0,0,1,19.05,38Z"/><path class="cls-16" d="M20.24,38.27a.38.38,0,1,1-.14.75.38.38,0,0,1-.3-.45A.37.37,0,0,1,20.24,38.27Z"/><path class="cls-16" d="M21.43,38.5a.37.37,0,0,1,.3.44.38.38,0,0,1-.44.31A.39.39,0,0,1,21,38.8.38.38,0,0,1,21.43,38.5Z"/><path class="cls-16" d="M22.62,38.73a.37.37,0,0,1,.3.44.38.38,0,1,1-.3-.44Z"/><path class="cls-16" d="M23.81,39a.38.38,0,1,1-.45.3A.38.38,0,0,1,23.81,39Z"/><path class="cls-16" d="M25,39.18a.39.39,0,0,1,.3.45.38.38,0,0,1-.45.3.37.37,0,0,1-.3-.44A.39.39,0,0,1,25,39.18Z"/><polygon class="cls-17" points="16 21.03 22.25 20.75 32.83 51.65 30.87 53.31 16 21.03"/><path class="cls-18" d="M38,.69c9.9,2.9,5.75,12.36-1.39,31.64a6.38,6.38,0,0,1-6.2-1C34.19,21.81,37.69,14.12,37.63,4c-3.66,3-4,4-8.37,5.92-3.26,4.79-1.34,2.91-1,8.32a24.43,24.43,0,0,1-5.57,12.36c-9-1.52-.18-3.38-6.65-4.43,2.06-3.6,4.52-1.16,5.57-7.46C23.09,9.57,30.64-3.11,38,.69Z"/><path class="cls-19" d="M33.94,8.65l-4-1.23c-.89,2.1-.58,2.85,1.3,3.39C33.34,11.42,33.73,10.71,33.94,8.65Z"/><path class="cls-19" d="M39,10.4,35,9.17c-.89,2.1-.58,2.85,1.3,3.39C38.39,13.17,38.77,12.46,39,10.4Z"/><path class="cls-1" d="M24.85,150.73A7.74,7.74,0,0,0,17.13,143h0a7.74,7.74,0,0,0-7.71,7.72Z"/></g></g></svg>