<!-- Generator: Adobe Illustrator 22.0.1, SVG Export Plug-In  -->
<svg version="1.1"
	 xmlns="http://www.w3.org/2000/svg" xmlns:xlink="http://www.w3.org/1999/xlink" xmlns:a="http://ns.adobe.com/AdobeSVGViewerExtensions/3.0/"
	 x="0px" y="0px" width="362.7px" height="512px" viewBox="0 0 362.7 512" style="enable-background:new 0 0 362.7 512;"
	 xml:space="preserve">
<style type="text/css">
	.st0{fill:#FFC107;}
	.st1{fill:#F44336;}
	.st2{fill:#455A64;}
</style>
<defs>
</defs>
<path class="st0" d="M160,149.3h42.7c5.9,0,10.7,4.8,10.7,10.7v341.3c0,5.9-4.8,10.7-10.7,10.7H160c-5.9,0-10.7-4.8-10.7-10.7V160
	C149.3,154.1,154.1,149.3,160,149.3z"/>
<path class="st1" d="M199.7,3.3c-4.1-4.3-10.8-4.4-15.1-0.4c-2.1,2-3.3,4.8-3.3,7.7v35.5c0,3.6-1.9,5.4-9.5,10.7
	c-13.7,7.2-22.4,21.3-22.5,36.7c0.4,19.5,16.6,35,36.1,34.5c0.8,0,1.5-0.1,2.3-0.1c11.5,0,22.7-4,31.6-11.3
	c10.1-8.7,15.8-21.5,15.4-34.9C232.2,52.4,219.9,24.8,199.7,3.3z"/>
<g>
	<path class="st2" d="M320,512H42.7c-5.9,0-10.7-4.8-10.7-10.7c0-2.3,0.7-4.6,2.1-6.4l32-42.7c2-2.7,5.2-4.3,8.5-4.3H288
		c3.4,0,6.5,1.6,8.5,4.3l32,42.7c3.5,4.7,2.6,11.4-2.1,14.9C324.6,511.3,322.3,512,320,512z M64,490.7h234.7l-16-21.3H80L64,490.7z"
		/>
	<path class="st2" d="M352,512H10.7C4.8,512,0,507.2,0,501.3s4.8-10.7,10.7-10.7H352c5.9,0,10.7,4.8,10.7,10.7S357.9,512,352,512z"
		/>
	<path class="st2" d="M266.7,298.7H96c-5.9,0-10.7-4.8-10.7-10.7s4.8-10.7,10.7-10.7h170.7c5.9,0,10.7,4.8,10.7,10.7
		C277.3,293.9,272.6,298.7,266.7,298.7z"/>
	<path class="st2" d="M74.7,469.3c-5.9,0-10.7-4.8-10.7-10.7c0-0.9,0.1-1.7,0.3-2.6L107,285.4l42.9-128.8c1.9-5.6,7.9-8.6,13.5-6.8
		c5.6,1.9,8.6,7.9,6.8,13.5l-42.7,128L85,461.2C83.8,466,79.6,469.3,74.7,469.3z"/>
	<path class="st2" d="M288,469.3c-4.9,0-9.2-3.3-10.3-8.1L235,290.6l-42.5-127.2c-1.9-5.6,1.2-11.6,6.8-13.5
		c5.6-1.9,11.6,1.2,13.5,6.8l42.7,128l42.9,171.5c1.4,5.7-2.1,11.5-7.8,12.9C289.7,469.2,288.9,469.3,288,469.3z"/>
	<path class="st2" d="M160,469.3c-3.4,0-6.5-1.6-8.5-4.3l-64-85.3c-2.8-3.8-2.8-9,0-12.8l64-85.3c3.5-4.7,10.2-5.7,14.9-2.1
		c4.7,3.5,5.7,10.2,2.1,14.9l-59.2,78.9l59.2,78.9c3.5,4.7,2.6,11.4-2.1,14.9C164.6,468.6,162.3,469.3,160,469.3z"/>
	<path class="st2" d="M202.7,469.3c-5.9,0-10.7-4.8-10.7-10.7c0-2.3,0.7-4.6,2.1-6.4l59.2-78.9l-59.2-78.9
		c-3.5-4.7-2.6-11.4,2.1-14.9c4.7-3.5,11.4-2.6,14.9,2.1l64,85.3c2.8,3.8,2.8,9,0,12.8l-64,85.3C209.2,467.8,206,469.3,202.7,469.3z
		"/>
	<path class="st2" d="M224,170.7h-85.3c-5.9,0-10.7-4.8-10.7-10.7s4.8-10.7,10.7-10.7H224c5.9,0,10.7,4.8,10.7,10.7
		S229.9,170.7,224,170.7z"/>
</g>
</svg>
