<!-- Generator: Adobe Illustrator 22.0.1, SVG Export Plug-In  -->
<svg version="1.1"
	 xmlns="http://www.w3.org/2000/svg" xmlns:xlink="http://www.w3.org/1999/xlink" xmlns:a="http://ns.adobe.com/AdobeSVGViewerExtensions/3.0/"
	 x="0px" y="0px" width="512px" height="512px" viewBox="0 0 512 512" style="enable-background:new 0 0 512 512;"
	 xml:space="preserve">
<style type="text/css">
	.st0{fill:#FFBC05;}
	.st1{fill:#23AEC8;}
	.st2{fill:#FBDEBA;}
	.st3{fill:#1967A3;}
	.st4{fill:#E2B186;}
	.st5{fill:#D12136;}
	.st6{fill:#9C1928;}
	.st7{fill:#E38100;}
	.st8{fill:#333333;}
</style>
<defs>
</defs>
<path class="st0" d="M211.9,88.3h-35.3v35.3h35.3c0,19.5-15.8,35.3-35.3,35.3l0,0c-19.5,0-35.3-15.8-35.3-35.3H17.7
	c-9.8,0-17.7-7.9-17.7-17.7l0,0c0-9.8,7.9-17.7,17.7-17.7h123.6c0-19.5,15.8-35.3,35.3-35.3l0,0C196.1,53,211.9,68.8,211.9,88.3z"/>
<polygon class="st1" points="512,309 512,512 176.6,512 176.6,397.2 141.2,397.2 141.2,309 "/>
<path class="st2" d="M88.3,123.6h-53v203c0,29.3,23.7,53,53,53h53v-53h-35.3c-9.8,0-17.7-7.9-17.7-17.7L88.3,123.6L88.3,123.6z"/>
<polygon class="st3" points="273.7,309 273.7,397.2 414.9,397.2 414.9,309 450.2,309 450.2,397.2 512,459 512,512 176.6,512 
	176.6,459 238.3,397.2 238.3,309 "/>
<path class="st2" d="M309,291.3v35.3c0,9.4,3.7,18.3,10.3,25l0,0c13.8,13.8,36.1,13.8,49.9,0l0,0c6.6-6.6,10.3-15.6,10.3-25v-35.3
	H309z"/>
<path class="st4" d="M309,296.3v-5h70.6v35.3c-0.1,8.4-3.1,16.5-8.6,22.8C343.5,341.7,320.8,322.3,309,296.3z"/>
<path class="st2" d="M441.4,105.9V203c0,53.6-43.5,97.1-97.1,97.1l0,0l0,0c-53.6,0-97.1-43.5-97.1-97.1v-97.1H441.4z"/>
<g>
	<path class="st2" d="M247.2,176.6h-17.7c-9.8,0-17.7,7.9-17.7,17.7l0,0c0,9.8,7.9,17.7,17.7,17.7h17.7V176.6z"/>
	<path class="st2" d="M441.4,176.6H459c9.8,0,17.7,7.9,17.7,17.7l0,0c0,9.8-7.9,17.7-17.7,17.7h-17.7V176.6z"/>
</g>
<path class="st5" d="M247.2,105.9h194.2v-8.8c0-53.6-43.5-97.1-97.1-97.1l0,0c-53.6,0-97.1,43.5-97.1,97.1L247.2,105.9L247.2,105.9z
	"/>
<path class="st6" d="M353.1,105.9L353.1,105.9c0,19.5,15.8,35.3,35.3,35.3h105.9c0-19.5-15.8-35.3-35.3-35.3H353.1z"/>
<rect x="35.3" y="61.8" class="st2" width="53" height="35.3"/>
<path class="st0" d="M247.2,150.1h26.5c24.4,0,44.1-19.8,44.1-44.1h-70.6V150.1z"/>
<g>
	<path class="st7" d="M176.6,90.7c-13.8,13.5-29.7,24.6-47,32.9h11.7c0,19.5,15.8,35.3,35.3,35.3s35.3-15.8,35.3-35.3h-35.3
		L176.6,90.7L176.6,90.7z"/>
	<path class="st7" d="M200.1,62.2c-6.2,9.4-13.3,18.1-21.2,26.1h32.9C211.8,78.3,207.6,68.8,200.1,62.2z"/>
</g>
<g>
	<g>
		<path class="st8" d="M305.8,158.2c-9.3,0-16.9,7.6-16.9,16.9c0,9.3,7.6,16.9,16.9,16.9s16.9-7.6,16.9-16.9
			C322.7,165.8,315.1,158.2,305.8,158.2z"/>
	</g>
</g>
<g>
	<g>
		<path class="st8" d="M396.5,158.2c-9.3,0-16.9,7.6-16.9,16.9c0,9.3,7.6,16.9,16.9,16.9c9.3,0,16.9-7.6,16.9-16.9
			C413.4,165.8,405.8,158.2,396.5,158.2z"/>
	</g>
</g>
<g>
	<g>
		<path class="st8" d="M396.5,252.1c-11.6-13.1-27-20.3-43.4-20.3s-31.8,7.2-43.4,20.3c-1.6,1.8-1.6,4.6,0,6.4
			c1.6,1.8,4.1,1.8,5.6,0c10.1-11.4,23.5-17.7,37.8-17.7s27.7,6.3,37.8,17.7c0.8,0.9,1.8,1.3,2.8,1.3c1,0,2-0.4,2.8-1.3
			C398.1,256.8,398.1,253.9,396.5,252.1z"/>
	</g>
</g>
<g>
	<g>
		<path class="st8" d="M368,254.6c-4.7-2.8-10-4.3-15.4-4.3c-5.3,0-10.7,1.5-15.4,4.3c-1.9,1.2-2.7,3.9-1.7,6.1
			c1,2.2,3.4,3.1,5.4,1.9c3.6-2.1,7.6-3.2,11.7-3.2c4.1,0,8.1,1.1,11.7,3.2c0.6,0.3,1.2,0.5,1.8,0.5c1.4,0,2.8-0.9,3.5-2.4
			C370.7,258.5,369.9,255.7,368,254.6z"/>
	</g>
</g>
</svg>
