<?xml version="1.0" encoding="iso-8859-1"?>
<!-- Generator: Adobe Illustrator 19.0.0, SVG Export Plug-In . SVG Version: 6.00 Build 0)  -->
<svg version="1.1" id="Capa_1" xmlns="http://www.w3.org/2000/svg" xmlns:xlink="http://www.w3.org/1999/xlink" x="0px" y="0px"
	 viewBox="0 0 512 512" style="enable-background:new 0 0 512 512;" xml:space="preserve">
<polygon style="fill:#4DB5FF;" points="512,83.862 476.69,83.862 476.69,48.552 441.379,48.552 441.379,83.862 406.069,83.862 
	406.069,119.172 441.379,119.172 441.379,154.483 476.69,154.483 476.69,119.172 512,119.172 "/>
<path style="fill:#FFD4B0;" d="M185.379,4.414L185.379,4.414c102.382,0,185.379,82.997,185.379,185.379v105.931h-52.966v105.931
	c0,29.255-23.711,52.966-52.966,52.966H150.069v52.966H0V189.793C0,87.411,82.997,4.414,185.379,4.414z"/>
<path style="fill:#EDC4A2;" d="M0,436.966v70.621h150.069v-52.966h114.759c29.255,0,52.966-23.711,52.966-52.966V295.724h52.966
	V189.793c0-2.233-0.256-4.414-0.335-6.603C311.172,336.137,164.025,436.948,0,436.966z"/>
<g>
	<path style="fill:#FFA511;" d="M176.552,92.69c-4.873,0-8.828-3.955-8.828-8.828V66.207c0-4.873,3.955-8.828,8.828-8.828
		c4.873,0,8.828,3.955,8.828,8.828v17.655C185.379,88.735,181.425,92.69,176.552,92.69z"/>
	<path style="fill:#FFA511;" d="M103.918,116.295c-2.825,0-5.491-1.351-7.15-3.637L86.387,98.375
		c-2.648-4.096-1.483-9.56,2.613-12.209c3.778-2.445,8.792-1.66,11.635,1.827l10.381,14.283c2.869,3.946,1.995,9.463-1.951,12.332
		c-1.51,1.095-3.319,1.686-5.182,1.686H103.918z"/>
	<path style="fill:#FFA511;" d="M59.012,178.088c-0.927,0-1.845-0.15-2.728-0.433L39.512,172.2
		c-4.564-1.713-6.877-6.806-5.155-11.37c1.607-4.273,6.215-6.621,10.611-5.402l16.772,5.464c4.634,1.51,7.177,6.488,5.667,11.123
		c-1.183,3.637-4.573,6.1-8.395,6.1L59.012,178.088z"/>
	<path style="fill:#FFA511;" d="M249.185,116.295c-4.873,0-8.828-3.964-8.819-8.836c0-1.863,0.591-3.672,1.686-5.182l10.417-14.283
		c2.869-3.946,8.386-4.82,12.332-1.951c3.946,2.869,4.82,8.386,1.951,12.332l-10.381,14.283
		C254.702,114.953,252.028,116.312,249.185,116.295z"/>
	<path style="fill:#FFA511;" d="M294.091,178.088c-4.873,0-8.828-3.955-8.828-8.828c0-3.822,2.463-7.212,6.1-8.395l16.772-5.464
		c4.696-1.298,9.56,1.457,10.858,6.162c1.218,4.405-1.13,9.004-5.402,10.611l-16.772,5.455
		C295.936,177.92,295.018,178.079,294.091,178.088z"/>
</g>
<path style="fill:#FFDC13;" d="M264.828,207.448c0.071-48.755-39.398-88.329-88.152-88.399s-88.329,39.398-88.399,88.152
	c-0.035,27.825,13.047,54.042,35.31,70.744v35.434h105.931v-35.434C251.745,261.323,264.828,235.202,264.828,207.448z"/>
<path style="fill:#E5AF17;" d="M123.586,285.952v27.427h105.931v-35.434c29.519-22.034,42.161-60.142,31.673-95.453
	C237.859,239.678,185,279.42,123.586,285.952z"/>
<path style="fill:#FFA511;" d="M132.414,313.379h88.276c9.754,0,17.655,7.901,17.655,17.655l0,0c0,9.754-7.901,17.655-17.655,17.655
	h-88.276c-9.754,0-17.655-7.901-17.655-17.655l0,0C114.759,321.28,122.659,313.379,132.414,313.379z"/>
<path style="fill:#F08015;" d="M228.228,315.145c-34.33,15.996-71.424,25.247-109.25,27.242c3.328,3.981,8.245,6.294,13.436,6.303
	h88.276c9.754-0.088,17.585-8.06,17.496-17.814C238.133,324.167,234.266,318.067,228.228,315.145z"/>
<path style="fill:#FFA511;" d="M150.069,348.69h52.966c9.754,0,17.655,7.901,17.655,17.655l0,0c0,9.754-7.901,17.655-17.655,17.655
	h-52.966c-9.754,0-17.655-7.901-17.655-17.655l0,0C132.414,356.59,140.314,348.69,150.069,348.69z"/>
<path style="fill:#F08015;" d="M137.772,378.977c3.284,3.222,7.698,5.023,12.297,5.023h52.966
	c9.702,0.053,17.611-7.777,17.655-17.479c0.018-4.034-1.351-7.954-3.875-11.096C191.514,366.442,164.97,374.351,137.772,378.977z"/>
<path style="fill:#3596D8;" d="M406.069,119.172h35.31v35.31h35.31v-35.31H512v-35.31h-23.243
	C467.174,106.425,437.301,119.19,406.069,119.172z"/>
<polygon style="fill:#4DB5FF;" points="512,242.759 476.69,242.759 476.69,207.448 441.379,207.448 441.379,242.759 
	406.069,242.759 406.069,278.069 441.379,278.069 441.379,313.379 476.69,313.379 476.69,278.069 512,278.069 "/>
<path style="fill:#3596D8;" d="M406.069,278.069h35.31v35.31h35.31v-35.31H512v-35.31h-23.243
	C467.174,265.322,437.301,278.087,406.069,278.069z"/>
<polygon style="fill:#4DB5FF;" points="512,401.655 476.69,401.655 476.69,366.345 441.379,366.345 441.379,401.655 
	406.069,401.655 406.069,436.966 441.379,436.966 441.379,472.276 476.69,472.276 476.69,436.966 512,436.966 "/>
<path style="fill:#3596D8;" d="M406.069,436.966h35.31v35.31h35.31v-35.31H512v-35.31h-23.243
	C467.174,424.218,437.301,436.983,406.069,436.966z"/>
<g>
</g>
<g>
</g>
<g>
</g>
<g>
</g>
<g>
</g>
<g>
</g>
<g>
</g>
<g>
</g>
<g>
</g>
<g>
</g>
<g>
</g>
<g>
</g>
<g>
</g>
<g>
</g>
<g>
</g>
</svg>
