<!-- Generator: Adobe Illustrator 22.0.1, SVG Export Plug-In  -->
<svg version="1.1"
	 xmlns="http://www.w3.org/2000/svg" xmlns:xlink="http://www.w3.org/1999/xlink" xmlns:a="http://ns.adobe.com/AdobeSVGViewerExtensions/3.0/"
	 x="0px" y="0px" width="426px" height="415.3px" viewBox="0 0 426 415.3" style="enable-background:new 0 0 426 415.3;"
	 xml:space="preserve">
<style type="text/css">
	.st0{fill:#2B2B2B;}
</style>
<defs>
</defs>
<path class="st0" d="M324.4,384.7L293.2,246l89.2,34.1v38.4h-29.3c-0.2,1.7-0.4,3.4-0.4,5.1c0,19.3,15.7,35,35,35
	c19.3,0,35-15.7,35-35c0-1.7-0.1-3.4-0.4-5.1h-29.3v-34.3l12.3,4.7l13.8-37.2l-35.2-39.5l-235.7-90.1L154.4,19L104.6,0L12.3,244.1
	l20.4,7.8V290H12.3v68.5h20.4v-35.8h13v35.8h20.4V290H45.7v-33.1l16,6.1l64.1-81l84.3,32.2v170.5H0v30.6h426v-30.6H324.4
	L324.4,384.7z M236,384.7V224.1l-0.1,0l28.1,10.7l33.8,149.9L236,384.7L236,384.7z"/>
</svg>
