<!-- Generator: Adobe Illustrator 22.0.1, SVG Export Plug-In  -->
<svg version="1.1"
	 xmlns="http://www.w3.org/2000/svg" xmlns:xlink="http://www.w3.org/1999/xlink" xmlns:a="http://ns.adobe.com/AdobeSVGViewerExtensions/3.0/"
	 x="0px" y="0px" width="60.4px" height="68.6px" viewBox="0 0 60.4 68.6" style="enable-background:new 0 0 60.4 68.6;"
	 xml:space="preserve">
<style type="text/css">
	.st0{opacity:0.5;fill-rule:evenodd;clip-rule:evenodd;fill:#A0D8F7;}
	.st1{fill-rule:evenodd;clip-rule:evenodd;fill:none;stroke:#00953F;stroke-width:1.9837;stroke-miterlimit:22.9256;}
	.st2{fill-rule:evenodd;clip-rule:evenodd;fill:#FFCB00;}
	
		.st3{fill-rule:evenodd;clip-rule:evenodd;fill:none;stroke:#1A1A18;stroke-width:0.9918;stroke-linecap:round;stroke-linejoin:round;stroke-miterlimit:22.9256;}
	.st4{fill-rule:evenodd;clip-rule:evenodd;fill:#AC4481;}
	.st5{fill-rule:evenodd;clip-rule:evenodd;fill:none;stroke:#1A1A18;stroke-width:0.9918;stroke-miterlimit:22.9256;}
	.st6{fill-rule:evenodd;clip-rule:evenodd;fill:#2F2482;}
	.st7{fill-rule:evenodd;clip-rule:evenodd;fill:#008AD1;}
	.st8{fill-rule:evenodd;clip-rule:evenodd;fill:#009DE2;}
	.st9{fill-rule:evenodd;clip-rule:evenodd;fill:#E4007D;}
	.st10{fill-rule:evenodd;clip-rule:evenodd;fill:#FFEC00;}
	.st11{fill-rule:evenodd;clip-rule:evenodd;fill:#6E3F81;}
	.st12{fill-rule:evenodd;clip-rule:evenodd;fill:#1A1A18;}
	.st13{fill-rule:evenodd;clip-rule:evenodd;fill:url(#SVGID_1_);}
	
		.st14{fill-rule:evenodd;clip-rule:evenodd;fill:none;stroke:#EE7C00;stroke-width:0.4252;stroke-linecap:round;stroke-linejoin:round;stroke-miterlimit:22.9256;}
	.st15{fill-rule:evenodd;clip-rule:evenodd;fill:url(#SVGID_2_);}
</style>
<defs>
</defs>
<g>
	<g>
		<path class="st0" d="M11.4,46.1c6-0.2,11,4.4,11.3,10.3c0.2,5.9-4.4,10.9-10.4,11.2S1.2,63.2,1,57.3C0.8,51.4,5.4,46.4,11.4,46.1z
			"/>
		<path class="st1" d="M11.4,46.1c6-0.2,11,4.4,11.3,10.3c0.2,5.9-4.4,10.9-10.4,11.2S1.2,63.2,1,57.3C0.8,51.4,5.4,46.4,11.4,46.1z
			"/>
	</g>
	<g>
		<path class="st0" d="M48.1,45.8c6-0.2,11,4.4,11.3,10.3C59.6,62,55,67,49,67.3c-6,0.2-11-4.4-11.3-10.3
			C37.5,51.1,42.2,46.1,48.1,45.8z"/>
		<path class="st1" d="M48.1,45.8c6-0.2,11,4.4,11.3,10.3C59.6,62,55,67,49,67.3c-6,0.2-11-4.4-11.3-10.3
			C37.5,51.1,42.2,46.1,48.1,45.8z"/>
	</g>
	<path class="st2" d="M25.7,42.5l4.4,1.9c-5.8,5.3-2.7,3.7-6.4,9.7l1.9,0.8c3.1-3.7,7.1-6.5,8.3-10.2c0.4-1.3,0.8-1.8-0.1-2.8
		l-4.3-4.6L25.7,42.5z"/>
	<polyline class="st3" points="43.3,41.4 27.6,58.7 11.8,56.8 	"/>
	<polygon class="st4" points="23.7,53.2 25.8,54.3 29.1,59.2 27.5,60.2 21,55.4 	"/>
	<polyline class="st3" points="11.8,56.8 24.7,46.5 42.6,39.4 48.6,56.6 	"/>
	<line class="st5" x1="27.6" y1="58.7" x2="21.6" y2="40.8"/>
	<path class="st6" d="M16.5,39.6l6.7-0.3c0.6,0,1,0.4,1.1,1v0c0,0.6-0.4,1-1,1.1l-6.7,0.3c-0.6,0-1-0.4-1.1-1v0
		C15.4,40.1,15.9,39.6,16.5,39.6z"/>
	<path class="st7" d="M11.7,54.2c1.5-0.1,2.7,1.1,2.7,2.5c0.1,1.4-1.1,2.7-2.5,2.7c-1.5,0.1-2.7-1.1-2.7-2.5
		C9.1,55.5,10.2,54.3,11.7,54.2z"/>
	<path class="st7" d="M48.2,53.7c1.5-0.1,2.7,1.1,2.7,2.5c0.1,1.4-1.1,2.7-2.5,2.7c-1.5,0.1-2.7-1.1-2.7-2.5
		C45.6,55,46.8,53.8,48.2,53.7z"/>
	<path class="st8" d="M26.8,54.8c1.8-0.1,3.3,1.3,3.4,3.1c0.1,1.8-1.3,3.3-3.1,3.4c-1.8,0.1-3.3-1.3-3.4-3.1
		C23.6,56.4,25,54.9,26.8,54.8z"/>
	<path class="st2" d="M33.5,12.3c1.5-0.1,2.8,0.5,3.4,1.7c0.3,0.6,0.3,1.4,0.3,2.1c0.1,2.2-1.4,4.2-3.6,4.3s-3.8-1.8-3.9-4
		C29.6,14.2,31.3,12.4,33.5,12.3z"/>
	<path class="st9" d="M30.1,17.9c-5.2-0.2-8.2,5.2-12.6,9.4c-10.6,6.9-12.2,9-13.9,11.1c0.1,1.1,0.9,3,2.9,2.5
		c6.5-1.5,4.6,1.4,7.5,2.1c2.1,0.5,3.1-1,5.4-0.6c1.2,0.2,3,1,4,0.3l4.9-4.7l0.9,1l1.1-1.1l-4-3.9l1.8-3.8l4.7-1.6
		c1.5-2.3,2.1-5.3,1.4-7.9C32.5,19.8,33,20.5,30.1,17.9z"/>
	<path class="st10" d="M23.4,42.7l5.4,2.3c-1.9,3.8-1.5,4.7-1.3,9l-0.4,1.7l2.2-0.1c1.2-3.7,2.1-6.6,3.2-10.3
		c0.4-1.3,0.8-1.8-0.1-2.8l-4.3-4.6L23.4,42.7z"/>
	<path class="st11" d="M26.9,55.6l2.4-0.1c0.4,0.2,8.6,2.3,5.2,4.6l-9-1.3L26.9,55.6z"/>
	<polygon class="st2" points="43.1,33.8 44.2,34.6 45.6,34.3 46.3,34.5 48.8,33.7 48.2,33.2 45.4,33.2 44.6,32.8 	"/>
	<path class="st2" d="M23.4,15.1c0.9,0.8,1.9,1.4,3.3,2.3c5.6,5.1-2.7,9.7-3.7,2.4l-2.9-3.1l-1.8-1.9l-3.7-8.8l1.6-0.5
		c1.2,2.7,3.6,5.7,4.8,8C21.9,14.4,22.7,14.5,23.4,15.1z"/>
	<path class="st2" d="M36.6,22.9l-2.4-2.2c0.5,2.1,0.2,3.7-0.1,4.8l3,3.3l6,5l1.4-1l-4.5-5.7L36.6,22.9z"/>
	<path class="st12" d="M35.9,15.6c0.3,0,0.5,0.2,0.5,0.4c0,0.2-0.2,0.5-0.4,0.5c-0.3,0-0.5-0.2-0.5-0.4
		C35.5,15.8,35.7,15.6,35.9,15.6z"/>
	<polyline class="st3" points="42.6,39.4 41.4,36 50.4,33.2 	"/>
	<path class="st12" d="M33.3,15.1c0.3,0,0.5,0.2,0.5,0.4c0,0.2-0.2,0.5-0.4,0.5c-0.3,0-0.5-0.2-0.5-0.4C32.8,15.3,33,15.1,33.3,15.1
		z"/>
</g>
<linearGradient id="SVGID_1_" gradientUnits="userSpaceOnUse" x1="-22.6009" y1="8.168" x2="-27.1256" y2="14.3773" gradientTransform="matrix(-1.0087 0 0 1 1.7942 0)">
	<stop  offset="0" style="stop-color:#FFCB00"/>
	<stop  offset="1" style="stop-color:#E2000F"/>
</linearGradient>
<path class="st13" d="M32.4,8.8c2.7,0.6,3.9,3.2,4.6,5.3c-2.4,0.6-4.7-3.3-7.1,3.5c-2.4,0.4-5.8-1.2-7.9-2.1
	c-2.1-0.9-4.6-4.9-2.8-4.8c5.7,0.4,2.3-3.6,5.7-2c1.5,0.7,1.9-1.8,3.8-0.7C29.9,8.7,31.4,8.6,32.4,8.8z"/>
<path class="st14" d="M33.6,18.2c0.1,0.3,0.4,0.4,0.7,0.4c0.2,0,0.3,0,0.4-0.1"/>
<path class="st2" d="M13.5,5.3c0.1,0.2,0.2,0.4,0.3,0.5c0.3,0.4,0.6,0.5,0.9,0.5L15,6.8c0.3,0,0.4-0.1,0.7-0.2
	c0.3-0.1,0.6-0.2,0.9-0.3c0,0,0,0,0,0l0-0.1l-0.2-0.5c0.6-0.5,0.1-0.7,0.2-1.9l0.2-1.4l0.1-0.7c0-0.2-0.1-0.4-0.3-0.4
	c-0.2,0-0.3,0.1-0.4,0.3l-0.1,0.8L16,3c-0.1,0.3-0.3,0-0.4-0.5c-0.3-0.9-0.6-2.6-1-2.5c-0.2,0-0.3,0.2-0.2,0.4
	c0,0.2,0.5,1.6,0.5,2.1c0,0.1,0,0.2,0,0.2c0,0-0.1-0.1-0.1-0.2c-0.3-0.5-0.8-2-0.9-2.2c-0.1-0.2-0.2-0.3-0.4-0.2
	c-0.2,0.1-0.2,0.3-0.2,0.4c0,0.3,0.6,1.5,0.7,2.1C14,2.8,14,2.9,14,3c-0.1,0-0.2-0.1-0.3-0.3C13.4,2.2,13,1.3,13,1.2
	C12.9,1,12.7,0.9,12.5,1c-0.2,0.1-0.2,0.3-0.1,0.5c0.1,0.1,0.4,0.8,0.7,1.3c0.2,0.5,0.4,0.9,0.4,0.9c-0.1,0.2-0.5-0.4-0.8-0.8
	c-0.1-0.2-0.3-0.4-0.3-0.4c-0.1-0.2-0.3-0.2-0.4-0.1c-0.1,0.1-0.1,0.3,0,0.5l0.2,0.3l1,1.4C13.2,4.7,13.4,5.1,13.5,5.3z"/>
</svg>
