<!-- Generator: Adobe Illustrator 22.0.1, SVG Export Plug-In  -->
<svg version="1.1"
	 xmlns="http://www.w3.org/2000/svg" xmlns:xlink="http://www.w3.org/1999/xlink" xmlns:a="http://ns.adobe.com/AdobeSVGViewerExtensions/3.0/"
	 x="0px" y="0px" width="48.6px" height="61px" viewBox="0 0 48.6 61" style="enable-background:new 0 0 48.6 61;"
	 xml:space="preserve">
<style type="text/css">
	.st0{fill-rule:evenodd;clip-rule:evenodd;fill:url(#SVGID_1_);}
	.st1{fill-rule:evenodd;clip-rule:evenodd;fill:url(#SVGID_2_);}
	.st2{fill-rule:evenodd;clip-rule:evenodd;fill:url(#SVGID_3_);}
	.st3{fill-rule:evenodd;clip-rule:evenodd;fill:url(#SVGID_4_);}
</style>
<defs>
</defs>
<g>
	<linearGradient id="SVGID_1_" gradientUnits="userSpaceOnUse" x1="23.7511" y1="48.962" x2="29.9231" y2="63.0787">
		<stop  offset="0" style="stop-color:#A55A44"/>
		<stop  offset="1" style="stop-color:#653E31"/>
	</linearGradient>
	<path class="st0" d="M28.3,48.3L29,61l-4.8,0l0.7-12.7C24.9,47.3,28.3,47.4,28.3,48.3z"/>
	<linearGradient id="SVGID_2_" gradientUnits="userSpaceOnUse" x1="24.4727" y1="33.1877" x2="23.8252" y2="7.7233">
		<stop  offset="0" style="stop-color:#00953F"/>
		<stop  offset="0.2047" style="stop-color:#2EA330"/>
		<stop  offset="0.4726" style="stop-color:#65B31D"/>
		<stop  offset="0.7042" style="stop-color:#8DBF10"/>
		<stop  offset="0.8876" style="stop-color:#A5C608"/>
		<stop  offset="1" style="stop-color:#AEC905"/>
	</linearGradient>
	<path class="st1" d="M40.1,15.2c4.8,0.7,8.5,4.9,8.5,9.9c0,3.1-1.4,5.9-3.6,7.7c0.8,1.4,1.2,3.1,1.2,4.8c0,5.5-4.5,10-10,10
		c-0.2,0-0.4,0-0.6,0c-2.6,1.6-5.8,2.6-9.1,2.6c-2.6,0-5-0.5-7.2-1.5c-1,0.3-2.1,0.5-3.2,0.5c-5.5,0-10-4.5-10-10
		c0-0.7,0.1-1.3,0.2-2C2.6,35.8,0,32.2,0,27.9c0-4.8,3.3-8.8,7.8-9.8c0-0.3,0-0.5,0-0.8c0-4.7,3.3-8.7,7.7-9.8l0,0
		c0-4.1,3.4-7.5,7.5-7.5c3.5,0,6.5,2.4,7.3,5.7C35.5,5.8,39.8,10,40.1,15.2z"/>
</g>
</svg>
