<!-- Generator: Adobe Illustrator 22.0.1, SVG Export Plug-In  -->
<svg version="1.1"
	 xmlns="http://www.w3.org/2000/svg" xmlns:xlink="http://www.w3.org/1999/xlink" xmlns:a="http://ns.adobe.com/AdobeSVGViewerExtensions/3.0/"
	 x="0px" y="0px" width="62.3px" height="197.6px" viewBox="0 0 62.3 197.6" style="enable-background:new 0 0 62.3 197.6;"
	 xml:space="preserve">
<style type="text/css">
	.st0{fill-rule:evenodd;clip-rule:evenodd;fill:#774B00;}
	.st1{fill-rule:evenodd;clip-rule:evenodd;fill:url(#SVGID_1_);}
	.st2{fill-rule:evenodd;clip-rule:evenodd;fill:url(#SVGID_4_);}
</style>
<defs>
</defs>
<g>
	<g>
		<path class="st0" d="M31.1,115.7L31.1,115.7c2.1,0,3.8,1.7,3.8,3.8v74.3c0,2.1-1.7,3.8-3.8,3.8l0,0c-2.1,0-3.8-1.7-3.8-3.8v-74.3
			C27.3,117.4,29,115.7,31.1,115.7z"/>
		<linearGradient id="SVGID_1_" gradientUnits="userSpaceOnUse" x1="39.5568" y1="82.7706" x2="62.2952" y2="82.7713">
			<stop  offset="0" style="stop-color:#00953F"/>
			<stop  offset="1" style="stop-color:#AEC905"/>
		</linearGradient>
		<path class="st1" d="M31.1,0L31.1,0c17.1,0,31.1,14,31.1,31.1v103.2c0,17.1-14,31.1-31.1,31.1h0C14,165.5,0,151.5,0,134.4V31.1
			C0,14,14,0,31.1,0z"/>
	</g>
	<g>
		<defs>
			<path id="SVGID_2_" d="M31.1,0L31.1,0c17.1,0,31.1,14,31.1,31.1v103.2c0,17.1-14,31.1-31.1,31.1h0C14,165.5,0,151.5,0,134.4V31.1
				C0,14,14,0,31.1,0z"/>
		</defs>
		<clipPath id="SVGID_3_">
			<use xlink:href="#SVGID_2_"  style="overflow:visible;"/>
		</clipPath>
		<g style="clip-path:url(#SVGID_3_);">
			
				<image style="overflow:visible;" width="261" height="691" xlink:href="4A0385E6760693D7.jpg"  transform="matrix(0.2387 0 0 0.2396 0 0)">
			</image>
		</g>
	</g>
</g>
</svg>
